<svg id="圖層_1" data-name="圖層 1" xmlns="http://www.w3.org/2000/svg" viewBox="0 0 595.28 595.48"><defs><style>.cls-1{fill:#59c0c9;opacity:0.28;}.cls-2{fill:#fff;}.cls-10,.cls-12,.cls-13,.cls-14,.cls-15,.cls-3,.cls-4,.cls-5,.cls-6,.cls-7,.cls-8,.cls-9{fill:none;}.cls-13,.cls-14,.cls-3,.cls-4,.cls-5{stroke:#59c0c9;}.cls-10,.cls-15,.cls-3,.cls-4,.cls-5,.cls-6,.cls-7,.cls-8,.cls-9{stroke-linecap:round;}.cls-10,.cls-12,.cls-13,.cls-15,.cls-3,.cls-4,.cls-5,.cls-6,.cls-7,.cls-8,.cls-9{stroke-miterlimit:10;}.cls-10,.cls-12,.cls-13,.cls-14,.cls-15,.cls-3,.cls-4,.cls-5,.cls-6,.cls-7,.cls-9{stroke-width:2px;}.cls-4{stroke-dasharray:7.94 7.94;}.cls-5{stroke-dasharray:7.95 7.95;}.cls-6{stroke:#22a8ab;}.cls-7{stroke:#3695ba;}.cls-10,.cls-8{stroke:#58a2bc;}.cls-8{stroke-width:2.04px;}.cls-9{stroke:#2268b1;}.cls-11{fill:#0d7c9d;}.cls-12{stroke:#004c6d;}.cls-14{stroke-linejoin:round;}.cls-15{stroke:#1b9092;}</style></defs><title>工作區域 1icon-404</title><path class="cls-1" d="M451.37,304.21a167,167,0,0,1-23.78,86.16h-288a167.79,167.79,0,1,1,311.77-86.16Z"/><path class="cls-2" d="M196.68,183.3H105.54A6.57,6.57,0,0,1,99,176.73h0a6.57,6.57,0,0,1,6.57-6.56h91.14a6.57,6.57,0,0,1,6.57,6.56h0A6.57,6.57,0,0,1,196.68,183.3Z"/><rect class="cls-2" x="301.52" y="149.06" width="104.28" height="13.14" rx="6.57" ry="6.57"/><path class="cls-2" d="M480.33,258.61H389.19a6.57,6.57,0,0,1-6.57-6.56h0a6.57,6.57,0,0,1,6.57-6.57h91.14a6.57,6.57,0,0,1,6.57,6.57h0A6.57,6.57,0,0,1,480.33,258.61Z"/><path class="cls-2" d="M518.43,279.52H427.29a6.57,6.57,0,0,1-6.57-6.57h0a6.57,6.57,0,0,1,6.57-6.57h91.14A6.57,6.57,0,0,1,525,273h0A6.57,6.57,0,0,1,518.43,279.52Z"/><path class="cls-2" d="M202.79,244.78H111.64a6.57,6.57,0,0,1-6.57-6.57h0a6.57,6.57,0,0,1,6.57-6.57h91.15a6.57,6.57,0,0,1,6.56,6.57h0A6.57,6.57,0,0,1,202.79,244.78Z"/><path class="cls-3" d="M444.38,386.84c-.61,1.18-1.24,2.36-1.87,3.53h-4"/><line class="cls-4" x1="430.56" y1="390.37" x2="132.64" y2="390.37"/><path class="cls-3" d="M128.67,390.37h-4c-.64-1.17-1.26-2.35-1.87-3.53"/><path class="cls-5" d="M119.32,379.69a180.11,180.11,0,0,1-16.47-75.48c0-99.82,80.92-180.75,180.74-180.75s180.74,80.93,180.74,180.75a180,180,0,0,1-18.17,79.07"/><line class="cls-3" x1="88.97" y1="182.46" x2="79.98" y2="191.45"/><line class="cls-3" x1="79.98" y1="182.46" x2="88.97" y2="191.45"/><line class="cls-6" x1="133.17" y1="443.7" x2="124.17" y2="452.69"/><line class="cls-6" x1="124.17" y1="443.7" x2="133.17" y2="452.69"/><line class="cls-3" x1="248.19" y1="160.67" x2="239.19" y2="169.67"/><line class="cls-3" x1="239.19" y1="160.67" x2="248.19" y2="169.67"/><line class="cls-3" x1="521.49" y1="336.72" x2="512.5" y2="345.72"/><line class="cls-3" x1="512.5" y1="336.72" x2="521.49" y2="345.72"/><line class="cls-3" x1="510.22" y1="182.46" x2="501.22" y2="191.45"/><line class="cls-3" x1="501.22" y1="182.46" x2="510.22" y2="191.45"/><line class="cls-6" x1="427" y1="127.58" x2="418.01" y2="136.58"/><line class="cls-6" x1="418.01" y1="127.58" x2="427" y2="136.58"/><circle class="cls-7" cx="44.21" cy="251.13" r="5.65"/><path class="cls-8" d="M64.83,347.7a5.66,5.66,0,1,1-8.15.36A5.77,5.77,0,0,1,64.83,347.7Z"/><circle class="cls-9" cx="458.68" cy="501.23" r="5.65"/><path class="cls-10" d="M367.41,180.43a5.66,5.66,0,1,1-5.66-5.65A5.66,5.66,0,0,1,367.41,180.43Z"/><circle class="cls-9" cx="220.59" cy="82.51" r="5.65"/><circle class="cls-7" cx="496.95" cy="274.52" r="5.65"/><path class="cls-11" d="M362.75,316.43a4.75,4.75,0,0,1-1.34,3.43,5.19,5.19,0,0,1-3.89,1.38H355v7.22c0,3.93-2,5.9-6,5.9-3.41,0-5.1-2.12-5.1-6.38v-6.74H321.41q-7.79,0-7.79-4.21a7.54,7.54,0,0,1,1.28-3.79c.85-1.4,1.54-2.51,2.08-3.31L334.7,282.5a16.16,16.16,0,0,1,4.49-4.46,10.21,10.21,0,0,1,5.44-1.44q5,0,7.65,2.53t2.69,8.42v24.07h2.55a5.06,5.06,0,0,1,3.89,1.44A4.82,4.82,0,0,1,362.75,316.43Zm-18.92-4.81V286.83l-15.58,24.79Z"/><path class="cls-11" d="M238.75,316.43a4.75,4.75,0,0,1-1.34,3.43,5.21,5.21,0,0,1-3.9,1.38H231v7.22q0,5.9-6,5.9c-3.4,0-5.1-2.12-5.1-6.38v-6.74H197.4q-7.78,0-7.78-4.21a7.52,7.52,0,0,1,1.27-3.79c.85-1.4,1.55-2.51,2.08-3.31l17.72-27.43a16.05,16.05,0,0,1,4.5-4.46,10.18,10.18,0,0,1,5.44-1.44q5,0,7.65,2.53t2.68,8.42v24.07h2.55a5.09,5.09,0,0,1,3.9,1.44A4.82,4.82,0,0,1,238.75,316.43Zm-18.93-4.81V286.83l-15.57,24.79Z"/><path class="cls-11" d="M299.08,299.73h-3.57a23.55,23.55,0,0,0-2.69-6.5l2.53-2.52a2.15,2.15,0,0,0,0-3l-5.2-5.2a2.14,2.14,0,0,0-3,0L284.59,285a23.66,23.66,0,0,0-6.49-2.69v-3.57A2.14,2.14,0,0,0,276,276.6h-7.34a2.14,2.14,0,0,0-2.15,2.14v3.57A23.66,23.66,0,0,0,260,285l-2.53-2.52a2.14,2.14,0,0,0-3,0l-5.2,5.2a2.15,2.15,0,0,0,0,3l2.53,2.52a23.55,23.55,0,0,0-2.69,6.5h-3.57a2.14,2.14,0,0,0-2.15,2.14v7.35a2.14,2.14,0,0,0,2.15,2.14h3.57a23.55,23.55,0,0,0,2.69,6.5l-2.53,2.52a2.17,2.17,0,0,0,0,3l5.2,5.19a2.14,2.14,0,0,0,3,0l2.53-2.52a23.66,23.66,0,0,0,6.49,2.69v3.57a2.14,2.14,0,0,0,2.15,2.14H276a2.14,2.14,0,0,0,2.15-2.14v-3.57a23.66,23.66,0,0,0,6.49-2.69l2.53,2.52a2.14,2.14,0,0,0,3,0l5.2-5.19a2.17,2.17,0,0,0,0-3l-2.53-2.52a23.55,23.55,0,0,0,2.69-6.5h3.57a2.14,2.14,0,0,0,2.15-2.14v-7.35A2.14,2.14,0,0,0,299.08,299.73ZM272.28,320a14.5,14.5,0,1,1,14.5-14.49A14.5,14.5,0,0,1,272.28,320Z"/><path class="cls-11" d="M323.44,282.08l-1.87-.17a12.86,12.86,0,0,0-1.11-3.53l1.44-1.2a1.13,1.13,0,0,0,.14-1.59l-2.48-3a1.13,1.13,0,0,0-1.59-.15l-1.44,1.21a12.48,12.48,0,0,0-3.28-1.71l.17-1.87a1.14,1.14,0,0,0-1-1.23l-3.85-.34a1.13,1.13,0,0,0-1.23,1l-.16,1.86a12.75,12.75,0,0,0-3.53,1.11l-1.21-1.44a1.13,1.13,0,0,0-1.59-.14l-3,2.48a1.13,1.13,0,0,0-.14,1.59l1.2,1.44a12.48,12.48,0,0,0-1.71,3.28l-1.87-.17a1.13,1.13,0,0,0-1.22,1l-.35,3.85a1.13,1.13,0,0,0,1,1.22l1.87.17a12.31,12.31,0,0,0,1.11,3.53l-1.44,1.2a1.13,1.13,0,0,0-.15,1.59l2.48,3a1.13,1.13,0,0,0,1.59.14l1.44-1.2a12.48,12.48,0,0,0,3.28,1.71l-.16,1.87a1.13,1.13,0,0,0,1,1.23l3.85.34a1.13,1.13,0,0,0,1.22-1l.17-1.87a12.51,12.51,0,0,0,3.53-1.1l1.2,1.44a1.14,1.14,0,0,0,1.59.14l3-2.48a1.14,1.14,0,0,0,.14-1.59l-1.21-1.44A12.82,12.82,0,0,0,321,288l1.86.17a1.14,1.14,0,0,0,1.23-1l.34-3.85A1.12,1.12,0,0,0,323.44,282.08Zm-15,9.39a7.62,7.62,0,1,1,8.27-6.92A7.61,7.61,0,0,1,308.45,291.47Z"/><path class="cls-12" d="M222.73,314V289.19L207.15,314Z"/><path class="cls-12" d="M275.19,322.27a14.5,14.5,0,1,1,14.49-14.49A14.5,14.5,0,0,1,275.19,322.27Z"/><path class="cls-12" d="M326.34,284.44l-1.87-.17a12.15,12.15,0,0,0-1.11-3.52l1.44-1.21A1.13,1.13,0,0,0,325,278l-2.49-3a1.11,1.11,0,0,0-1.58-.14l-1.44,1.2a12.48,12.48,0,0,0-3.28-1.71l.16-1.87a1.12,1.12,0,0,0-1-1.22l-3.85-.35a1.13,1.13,0,0,0-1.22,1l-.17,1.87a12.51,12.51,0,0,0-3.53,1.1l-1.2-1.44a1.14,1.14,0,0,0-1.59-.14l-3,2.48a1.14,1.14,0,0,0-.14,1.59l1.21,1.44a12.82,12.82,0,0,0-1.72,3.28l-1.87-.16a1.12,1.12,0,0,0-1.22,1l-.34,3.85a1.12,1.12,0,0,0,1,1.22l1.87.17a12.86,12.86,0,0,0,1.11,3.53l-1.44,1.2a1.13,1.13,0,0,0-.14,1.59l2.48,3a1.14,1.14,0,0,0,1.59.14l1.44-1.21a12.48,12.48,0,0,0,3.28,1.71l-.17,1.87a1.14,1.14,0,0,0,1,1.23l3.85.34a1.13,1.13,0,0,0,1.23-1l.16-1.87a12.75,12.75,0,0,0,3.53-1.11l1.21,1.44a1.13,1.13,0,0,0,1.59.14l3-2.48a1.13,1.13,0,0,0,.14-1.59l-1.2-1.44a12.48,12.48,0,0,0,1.71-3.28l1.87.17a1.12,1.12,0,0,0,1.22-1l.35-3.85A1.14,1.14,0,0,0,326.34,284.44Zm-15,9.4a7.62,7.62,0,1,1,8.27-6.92A7.64,7.64,0,0,1,311.35,293.84Z"/><path class="cls-12" d="M400.61,336.72H363.85c-5,0-6.07-2-6.07-5.89v-7.22h2.55a5.19,5.19,0,0,0,3.89-1.39,4.74,4.74,0,0,0,1.34-3.43,4.83,4.83,0,0,0-1.34-3.37,5.06,5.06,0,0,0-3.89-1.44h-2.55V289.91q0-5.9-2.69-8.42T347.44,279a10.13,10.13,0,0,0-5.44,1.45,16,16,0,0,0-4.49,4.45l-17.72,27.43c-.54.81-1.23,1.91-2.08,3.31a7.45,7.45,0,0,0-1.28,3.79q0,4.22,7.79,4.22h22.41v6.73c0,4.26-.52,6.38-7.43,6.38H283.55c-2,0-2.55-1-2.55-2.14V331a23.86,23.86,0,0,0,6.5-2.69l2.52,2.52a2.15,2.15,0,0,0,3,0l5.19-5.19a2.15,2.15,0,0,0,0-3l-2.52-2.52a23.86,23.86,0,0,0,2.69-6.5H302a2.14,2.14,0,0,0,2.14-2.14V304.1A2.14,2.14,0,0,0,302,302h-3.57a23.86,23.86,0,0,0-2.69-6.5l2.52-2.52a2.15,2.15,0,0,0,0-3l-5.19-5.19a2.15,2.15,0,0,0-3,0l-2.52,2.52a23.86,23.86,0,0,0-6.5-2.69V281a2.14,2.14,0,0,0-2.14-2.14h-7.35a2.14,2.14,0,0,0-2.14,2.14v3.57a23.86,23.86,0,0,0-6.5,2.69l-2.52-2.52a2.15,2.15,0,0,0-3,0l-5.19,5.19a2.15,2.15,0,0,0,0,3l2.52,2.52A23.86,23.86,0,0,0,252,302h-3.57a2.14,2.14,0,0,0-2.14,2.14v7.35a2.14,2.14,0,0,0,2.14,2.14H252a23.86,23.86,0,0,0,2.69,6.5l-2.52,2.52a2.15,2.15,0,0,0,0,3l5.19,5.19a2.15,2.15,0,0,0,3,0l2.52-2.52a23.86,23.86,0,0,0,6.5,2.69v3.57c0,1.72-1.89,2.14-4.08,2.14H239.94c-5,0-6.07-2-6.07-5.89v-7.22h2.55a5.18,5.18,0,0,0,3.89-1.39,4.7,4.7,0,0,0,1.34-3.43,4.79,4.79,0,0,0-1.34-3.37,5,5,0,0,0-3.89-1.44h-2.55V289.91q0-5.9-2.69-8.42T223.53,279a10.07,10.07,0,0,0-5.43,1.45,15.87,15.87,0,0,0-4.5,4.45l-17.72,27.43c-.54.81-1.23,1.91-2.08,3.31a7.54,7.54,0,0,0-1.28,3.79q0,4.22,7.79,4.22h22.42v6.73c0,4.26-.53,6.38-7.44,6.38H166.57M346.63,314V289.19L331.06,314Z"/><path class="cls-13" d="M157.21,203.22H410a12.54,12.54,0,0,1,12.54,12.54V390.37a0,0,0,0,1,0,0H144.67a0,0,0,0,1,0,0V215.76A12.54,12.54,0,0,1,157.21,203.22Z"/><rect class="cls-13" x="157.21" y="214.89" width="252.75" height="163.61"/><rect class="cls-13" x="110.81" y="390.37" width="345.55" height="12.16"/><path class="cls-14" d="M441.05,410.32H126.13a15.41,15.41,0,0,1-9.5-3.27l-5.82-4.52H456.36l-5.81,4.52A15.43,15.43,0,0,1,441.05,410.32Z"/><line class="cls-3" x1="360.6" y1="533.39" x2="351.6" y2="542.38"/><line class="cls-3" x1="351.6" y1="533.39" x2="360.6" y2="542.38"/><circle class="cls-3" cx="172.22" cy="533.89" r="5.65"/><circle class="cls-3" cx="388.27" cy="458.35" r="5.65"/><line class="cls-15" x1="261.28" y1="470.81" x2="252.29" y2="479.8"/><line class="cls-15" x1="252.29" y1="470.81" x2="261.28" y2="479.8"/></svg>