<?xml version="1.0" encoding="UTF-8"?>
<svg width="38px" height="35px" viewBox="0 0 38 35" version="1.1" xmlns="http://www.w3.org/2000/svg" xmlns:xlink="http://www.w3.org/1999/xlink">
    <!-- Generator: Sketch 63.1 (92452) - https://sketch.com -->
    <title>Artboard</title>
    <desc>Created with Sketch.</desc>
    <defs>
        <polygon id="path-1" points="0 -0.003 4.00025 -0.003 4.00025 4 0 4"></polygon>
        <polygon id="path-3" points="-0.00025 -0.003 4 -0.003 4 4 -0.00025 4"></polygon>
        <polygon id="path-5" points="0 36 39 36 39 0 0 0"></polygon>
    </defs>
    <g id="Artboard" stroke="none" stroke-width="1" fill="none" fill-rule="evenodd">
        <g id="Group-7" transform="translate(14.000000, 1.000000)">
            <g id="Group-3" transform="translate(0.000000, 0.003230)">
                <mask id="mask-2" fill="white">
                    <use xlink:href="#path-1"></use>
                </mask>
                <g id="Clip-2"></g>
                <path d="M22.293,3.7065 C22.488,3.9025 22.744,4.0005 23,4.0005 C23.256,4.0005 23.512,3.9025 23.707,3.7065 C24.098,3.3155 24.098,2.6825 23.707,2.2915 L21.707,0.2905 C21.316,-0.1015 20.684,-0.1015 20.293,0.2905 C19.902,0.6815 19.902,1.3135 20.293,1.7055 L22.293,3.7065 Z" id="Fill-1" fill="#000000" mask="url(#mask-2)"></path>
            </g>
            <g id="Group-6" transform="translate(6.000000, 0.003230)">
                <mask id="mask-4" fill="white">
                    <use xlink:href="#path-3"></use>
                </mask>
                <g id="Clip-5"></g>
            </g>
        </g>
        <g id="Group-16">
            <path d="M31.9057619,11.7311151 C31.5655975,11.4208633 31.0522422,11.4208633 30.7120778,11.7311151 C30.054841,12.3363309 29.0103675,12.3363309 28.3531307,11.7311151 C28.0129662,11.4208633 27.499611,11.4208633 27.1594466,11.7311151 C26.5022098,12.3363309 25.4577363,12.3363309 24.8004995,11.7311151 C24.460335,11.4208633 23.9469798,11.4208633 23.6068154,11.7311151 C22.9495786,12.3363309 21.9051051,12.3363309 21.2478683,11.7311151 C20.9077038,11.4208633 20.3943486,11.4208633 20.0541842,11.7311151 C19.3969474,12.3363309 18.3524738,12.3363309 17.6952371,11.7311151 C17.3550726,11.4208633 16.8417174,11.4208633 16.501553,11.7311151 C15.8443162,12.3363309 14.7998426,12.3363309 14.1426059,11.7311151 C13.8024414,11.4208633 13.2890862,11.4208633 12.9489218,11.7311151 C12.291685,12.3363309 11.2472114,12.3363309 10.5899747,11.7311151 C10.2498102,11.4208633 9.73645502,11.4208633 9.39629058,11.7311151 C8.73905381,12.3363309 7.69458024,12.3363309 7.03734346,11.7311151 C6.69717903,11.4208633 6.18382382,11.4208633 5.84365938,11.7311151 C5.37115943,12.1663669 4.69438319,12.307554 4.11175167,12.1070144 L5.15800156,10.4001799 L21.539184,10.4001799 C22.0303353,10.4001799 22.4273418,9.99730216 22.4273418,9.50089928 C22.4273418,9.00359712 22.0303353,8.60071942 21.539184,8.60071942 L5.70421861,8.60071942 C6.07102778,7.55305755 7.05865925,6.80035971 8.21681702,6.80035971 L29.5326042,6.80035971 C30.690762,6.80035971 31.6783935,7.55305755 32.0452027,8.60071942 L25.0918152,8.60071942 C24.600664,8.60071942 24.2036574,9.00359712 24.2036574,9.50089928 C24.2036574,9.99730216 24.600664,10.4001799 25.0918152,10.4001799 L32.5905316,10.4001799 L33.6376696,12.1070144 C33.0550381,12.307554 32.3782618,12.1663669 31.9057619,11.7311151 M29.5326042,5 L8.21681702,5 C5.87208043,5 3.96609379,6.85791367 3.80711354,9.19334532 L2.13382425,11.9226619 C1.90734401,12.2931655 1.97395584,12.7733813 2.29102818,13.0647482 C3.41987674,14.0998201 5.15356077,14.2742806 6.44050142,13.5089928 C7.51606052,14.1492806 8.91757353,14.1492806 9.99313263,13.5089928 C11.0686917,14.1492806 12.4702047,14.1492806 13.5457638,13.5089928 C14.6213229,14.1492806 16.0228359,14.1492806 17.098395,13.5089928 C18.1739541,14.1492806 19.5754671,14.1492806 20.6510262,13.5089928 C21.7265853,14.1492806 23.1280983,14.1492806 24.2036574,13.5089928 C25.2792165,14.1492806 26.6807295,14.1492806 27.7562886,13.5089928 C28.8318477,14.1492806 30.2333607,14.1492806 31.3089198,13.5089928 C31.8471435,13.8291367 32.458196,14 33.0852354,14 C33.9591827,14 34.8011563,13.6681655 35.4583931,13.0647482 C35.7754654,12.7733813 35.8429654,12.2931655 35.6164852,11.9226619 L33.9431959,9.19334532 C33.7833275,6.85791367 31.8773408,5 29.5326042,5" id="Fill-1" fill="#000000"></path>
            <path d="M31.9057619,11.7311151 C31.5655975,11.4208633 31.0522422,11.4208633 30.7120778,11.7311151 C30.054841,12.3363309 29.0103675,12.3363309 28.3531307,11.7311151 C28.0129662,11.4208633 27.499611,11.4208633 27.1594466,11.7311151 C26.5022098,12.3363309 25.4577363,12.3363309 24.8004995,11.7311151 C24.460335,11.4208633 23.9469798,11.4208633 23.6068154,11.7311151 C22.9495786,12.3363309 21.9051051,12.3363309 21.2478683,11.7311151 C20.9077038,11.4208633 20.3943486,11.4208633 20.0541842,11.7311151 C19.3969474,12.3363309 18.3524738,12.3363309 17.6952371,11.7311151 C17.3550726,11.4208633 16.8417174,11.4208633 16.501553,11.7311151 C15.8443162,12.3363309 14.7998426,12.3363309 14.1426059,11.7311151 C13.8024414,11.4208633 13.2890862,11.4208633 12.9489218,11.7311151 C12.291685,12.3363309 11.2472114,12.3363309 10.5899747,11.7311151 C10.2498102,11.4208633 9.73645502,11.4208633 9.39629058,11.7311151 C8.73905381,12.3363309 7.69458024,12.3363309 7.03734346,11.7311151 C6.69717903,11.4208633 6.18382382,11.4208633 5.84365938,11.7311151 C5.37115943,12.1663669 4.69438319,12.307554 4.11175167,12.1070144 L5.15800156,10.4001799 L21.539184,10.4001799 C22.0303353,10.4001799 22.4273418,9.99730216 22.4273418,9.50089928 C22.4273418,9.00359712 22.0303353,8.60071942 21.539184,8.60071942 L5.70421861,8.60071942 C6.07102778,7.55305755 7.05865925,6.80035971 8.21681702,6.80035971 L29.5326042,6.80035971 C30.690762,6.80035971 31.6783935,7.55305755 32.0452027,8.60071942 L25.0918152,8.60071942 C24.600664,8.60071942 24.2036574,9.00359712 24.2036574,9.50089928 C24.2036574,9.99730216 24.600664,10.4001799 25.0918152,10.4001799 L32.5905316,10.4001799 L33.6376696,12.1070144 C33.0550381,12.307554 32.3782618,12.1663669 31.9057619,11.7311151 Z M29.5326042,5 L8.21681702,5 C5.87208043,5 3.96609379,6.85791367 3.80711354,9.19334532 L2.13382425,11.9226619 C1.90734401,12.2931655 1.97395584,12.7733813 2.29102818,13.0647482 C3.41987674,14.0998201 5.15356077,14.2742806 6.44050142,13.5089928 C7.51606052,14.1492806 8.91757353,14.1492806 9.99313263,13.5089928 C11.0686917,14.1492806 12.4702047,14.1492806 13.5457638,13.5089928 C14.6213229,14.1492806 16.0228359,14.1492806 17.098395,13.5089928 C18.1739541,14.1492806 19.5754671,14.1492806 20.6510262,13.5089928 C21.7265853,14.1492806 23.1280983,14.1492806 24.2036574,13.5089928 C25.2792165,14.1492806 26.6807295,14.1492806 27.7562886,13.5089928 C28.8318477,14.1492806 30.2333607,14.1492806 31.3089198,13.5089928 C31.8471435,13.8291367 32.458196,14 33.0852354,14 C33.9591827,14 34.8011563,13.6681655 35.4583931,13.0647482 C35.7754654,12.7733813 35.8429654,12.2931655 35.6164852,11.9226619 L33.9431959,9.19334532 C33.7833275,6.85791367 31.8773408,5 29.5326042,5 Z" id="Stroke-3" stroke="#000000" stroke-width="0.3"></path>
            <mask id="mask-6" fill="white">
                <use xlink:href="#path-5"></use>
            </mask>
            <g id="Clip-6"></g>
            <path d="M34.8333333,33.3998238 L36.4166667,33.3998238 L36.4166667,25.4005414 L34.8333333,25.4005414 L34.8333333,33.3998238 Z M21.375,30.2002707 L21.375,28.6000945 L26.56675,28.6000945 L33.25,28.6000945 L33.25,30.2002707 L21.375,30.2002707 Z M18.2083333,33.3998238 L19.7916667,33.3998238 L19.7916667,25.4005414 L18.2083333,25.4005414 L18.2083333,33.3998238 Z M4.75,30.2002707 L4.75,28.6000945 L11.43325,28.6000945 L16.625,28.6000945 L16.625,30.2002707 L4.75,30.2002707 Z M1.58333333,33.3998238 L3.16666667,33.3998238 L3.16666667,25.4005414 L1.58333333,25.4005414 L1.58333333,33.3998238 Z M5.95966667,22.2993009 C5.95491667,22.26653 5.95175,22.2337592 5.947,22.2009883 L9.5,22.2009883 C9.93779167,22.2009883 10.2916667,21.8429069 10.2916667,21.4009002 C10.2916667,20.9588935 9.93779167,20.6008121 9.5,20.6008121 L4.75,20.6008121 C4.313,20.6008121 3.95833333,20.2427308 3.95833333,19.800724 C3.95833333,19.3603159 4.313,19.0006359 4.75,19.0006359 L33.25,19.0006359 C33.687,19.0006359 34.0416667,19.3603159 34.0416667,19.800724 C34.0416667,20.2427308 33.687,20.6008121 33.25,20.6008121 L12.6666667,20.6008121 C12.228875,20.6008121 11.875,20.9588935 11.875,21.4009002 C11.875,21.8429069 12.228875,22.2009883 12.6666667,22.2009883 L32.053,22.2009883 C32.04825,22.2337592 32.0450833,22.26653 32.0403333,22.2993009 C31.646875,24.9801155 29.2940417,27.0007176 26.56675,27.0007176 L21.375,27.0007176 L21.375,24.6004533 C21.375,24.1592459 21.021125,23.8003652 20.5833333,23.8003652 L17.4166667,23.8003652 C16.978875,23.8003652 16.625,24.1592459 16.625,24.6004533 L16.625,27.0007176 L11.43325,27.0007176 C8.70595833,27.0007176 6.353125,24.9801155 5.95966667,22.2993009 L5.95966667,22.2993009 Z M37.2083333,23.8003652 L34.0416667,23.8003652 C33.603875,23.8003652 33.25,24.1592459 33.25,24.6004533 L33.25,27.0007176 L31.0372917,27.0007176 C32.3855,25.9088891 33.3410417,24.3390859 33.60625,22.5334925 C33.6244583,22.4088034 33.6395,22.2841144 33.6569167,22.1602246 C34.772375,21.9628003 35.625,20.9836715 35.625,19.800724 C35.625,18.7528564 34.9512917,17.8680437 34.0226667,17.5427332 C34.0677917,15.6028592 33.9799167,13.6438024 33.7447917,11.7047277 C33.6925417,11.2667174 33.2959167,10.9454033 32.8636667,11.0077479 C32.4290417,11.0613002 32.1202917,11.4609446 32.174125,11.8989549 C32.395,13.7269284 32.4797083,15.5732855 32.4417083,17.401259 L5.55829167,17.401259 C5.52029167,15.5732855 5.605,13.7269284 5.825875,11.8989549 C5.87970833,11.4609446 5.57095833,11.0613002 5.13633333,11.0077479 C4.69933333,10.9462026 4.30745833,11.2667174 4.25520833,11.7047277 C4.02008333,13.6438024 3.93220833,15.6036585 3.97733333,17.5427332 C3.04791667,17.8680437 2.375,18.7528564 2.375,19.800724 C2.375,20.9836715 3.227625,21.9628003 4.343875,22.1602246 C4.3605,22.2841144 4.37554167,22.4088034 4.39375,22.5334925 C4.65895833,24.3390859 5.6145,25.9088891 6.96191667,27.0007176 L4.75,27.0007176 L4.75,24.6004533 C4.75,24.1592459 4.396125,23.8003652 3.95833333,23.8003652 L0.791666667,23.8003652 C0.353875,23.8003652 0,24.1592459 0,24.6004533 L0,34.1999119 C0,34.6427179 0.353875,35 0.791666667,35 L3.95833333,35 C4.396125,35 4.75,34.6427179 4.75,34.1999119 L4.75,31.8004469 L16.625,31.8004469 L16.625,34.1999119 C16.625,34.6427179 16.978875,35 17.4166667,35 L20.5833333,35 C21.021125,35 21.375,34.6427179 21.375,34.1999119 L21.375,31.8004469 L33.25,31.8004469 L33.25,34.1999119 C33.25,34.6427179 33.603875,35 34.0416667,35 L37.2083333,35 C37.646125,35 38,34.6427179 38,34.1999119 L38,24.6004533 C38,24.1592459 37.646125,23.8003652 37.2083333,23.8003652 L37.2083333,23.8003652 Z" id="Fill-5" fill="#000000" mask="url(#mask-6)"></path>
            <path d="M34.8333333,33.3998238 L36.4166667,33.3998238 L36.4166667,25.4005414 L34.8333333,25.4005414 L34.8333333,33.3998238 Z M21.375,30.2002707 L21.375,28.6000945 L26.56675,28.6000945 L33.25,28.6000945 L33.25,30.2002707 L21.375,30.2002707 Z M18.2083333,33.3998238 L19.7916667,33.3998238 L19.7916667,25.4005414 L18.2083333,25.4005414 L18.2083333,33.3998238 Z M4.75,30.2002707 L4.75,28.6000945 L11.43325,28.6000945 L16.625,28.6000945 L16.625,30.2002707 L4.75,30.2002707 Z M1.58333333,33.3998238 L3.16666667,33.3998238 L3.16666667,25.4005414 L1.58333333,25.4005414 L1.58333333,33.3998238 Z M5.95966667,22.2993009 C5.95491667,22.26653 5.95175,22.2337592 5.947,22.2009883 L9.5,22.2009883 C9.93779167,22.2009883 10.2916667,21.8429069 10.2916667,21.4009002 C10.2916667,20.9588935 9.93779167,20.6008121 9.5,20.6008121 L4.75,20.6008121 C4.313,20.6008121 3.95833333,20.2427308 3.95833333,19.800724 C3.95833333,19.3603159 4.313,19.0006359 4.75,19.0006359 L33.25,19.0006359 C33.687,19.0006359 34.0416667,19.3603159 34.0416667,19.800724 C34.0416667,20.2427308 33.687,20.6008121 33.25,20.6008121 L12.6666667,20.6008121 C12.228875,20.6008121 11.875,20.9588935 11.875,21.4009002 C11.875,21.8429069 12.228875,22.2009883 12.6666667,22.2009883 L32.053,22.2009883 C32.04825,22.2337592 32.0450833,22.26653 32.0403333,22.2993009 C31.646875,24.9801155 29.2940417,27.0007176 26.56675,27.0007176 L21.375,27.0007176 L21.375,24.6004533 C21.375,24.1592459 21.021125,23.8003652 20.5833333,23.8003652 L17.4166667,23.8003652 C16.978875,23.8003652 16.625,24.1592459 16.625,24.6004533 L16.625,27.0007176 L11.43325,27.0007176 C8.70595833,27.0007176 6.353125,24.9801155 5.95966667,22.2993009 Z M37.2083333,23.8003652 L34.0416667,23.8003652 C33.603875,23.8003652 33.25,24.1592459 33.25,24.6004533 L33.25,27.0007176 L31.0372917,27.0007176 C32.3855,25.9088891 33.3410417,24.3390859 33.60625,22.5334925 C33.6244583,22.4088034 33.6395,22.2841144 33.6569167,22.1602246 C34.772375,21.9628003 35.625,20.9836715 35.625,19.800724 C35.625,18.7528564 34.9512917,17.8680437 34.0226667,17.5427332 C34.0677917,15.6028592 33.9799167,13.6438024 33.7447917,11.7047277 C33.6925417,11.2667174 33.2959167,10.9454033 32.8636667,11.0077479 C32.4290417,11.0613002 32.1202917,11.4609446 32.174125,11.8989549 C32.395,13.7269284 32.4797083,15.5732855 32.4417083,17.401259 L5.55829167,17.401259 C5.52029167,15.5732855 5.605,13.7269284 5.825875,11.8989549 C5.87970833,11.4609446 5.57095833,11.0613002 5.13633333,11.0077479 C4.69933333,10.9462026 4.30745833,11.2667174 4.25520833,11.7047277 C4.02008333,13.6438024 3.93220833,15.6036585 3.97733333,17.5427332 C3.04791667,17.8680437 2.375,18.7528564 2.375,19.800724 C2.375,20.9836715 3.227625,21.9628003 4.343875,22.1602246 C4.3605,22.2841144 4.37554167,22.4088034 4.39375,22.5334925 C4.65895833,24.3390859 5.6145,25.9088891 6.96191667,27.0007176 L4.75,27.0007176 L4.75,24.6004533 C4.75,24.1592459 4.396125,23.8003652 3.95833333,23.8003652 L0.791666667,23.8003652 C0.353875,23.8003652 0,24.1592459 0,24.6004533 L0,34.1999119 C0,34.6427179 0.353875,35 0.791666667,35 L3.95833333,35 C4.396125,35 4.75,34.6427179 4.75,34.1999119 L4.75,31.8004469 L16.625,31.8004469 L16.625,34.1999119 C16.625,34.6427179 16.978875,35 17.4166667,35 L20.5833333,35 C21.021125,35 21.375,34.6427179 21.375,34.1999119 L21.375,31.8004469 L33.25,31.8004469 L33.25,34.1999119 C33.25,34.6427179 33.603875,35 34.0416667,35 L37.2083333,35 C37.646125,35 38,34.6427179 38,34.1999119 L38,24.6004533 C38,24.1592459 37.646125,23.8003652 37.2083333,23.8003652 Z" id="Stroke-7" stroke="#000000" stroke-width="0.3" mask="url(#mask-6)"></path>
            <path d="M11,19.5 C11,20.3288905 10.3278098,21 9.5,21 C8.6721902,21 8,20.3288905 8,19.5 C8,18.6711095 8.6721902,18 9.5,18 C10.3278098,18 11,18.6711095 11,19.5" id="Fill-8" fill="#050101" mask="url(#mask-6)"></path>
            <path d="M11,19.5 C11,20.3288905 10.3278098,21 9.5,21 C8.6721902,21 8,20.3288905 8,19.5 C8,18.6711095 8.6721902,18 9.5,18 C10.3278098,18 11,18.6711095 11,19.5 Z" id="Stroke-9" stroke="#060101" stroke-width="0.75" mask="url(#mask-6)"></path>
            <path d="M17,19.5 C17,20.3288905 16.3278098,21 15.5,21 C14.6721902,21 14,20.3288905 14,19.5 C14,18.6711095 14.6721902,18 15.5,18 C16.3278098,18 17,18.6711095 17,19.5" id="Fill-10" fill="#050101" mask="url(#mask-6)"></path>
            <path d="M17,19.5 C17,20.3288905 16.3278098,21 15.5,21 C14.6721902,21 14,20.3288905 14,19.5 C14,18.6711095 14.6721902,18 15.5,18 C16.3278098,18 17,18.6711095 17,19.5 Z" id="Stroke-11" stroke="#060101" stroke-width="0.75" mask="url(#mask-6)"></path>
            <path d="M23,19.5 C23,20.3288905 22.3286486,21 21.4994595,21 C20.6713514,21 20,20.3288905 20,19.5 C20,18.6711095 20.6713514,18 21.4994595,18 C22.3286486,18 23,18.6711095 23,19.5" id="Fill-12" fill="#050101" mask="url(#mask-6)"></path>
            <path d="M23,19.5 C23,20.3288905 22.3286486,21 21.4994595,21 C20.6713514,21 20,20.3288905 20,19.5 C20,18.6711095 20.6713514,18 21.4994595,18 C22.3286486,18 23,18.6711095 23,19.5 Z" id="Stroke-13" stroke="#060101" stroke-width="0.75" mask="url(#mask-6)"></path>
            <path d="M30,19.5 C30,20.3288905 29.3286486,21 28.4994595,21 C27.6713514,21 27,20.3288905 27,19.5 C27,18.6711095 27.6713514,18 28.4994595,18 C29.3286486,18 30,18.6711095 30,19.5" id="Fill-14" fill="#050101" mask="url(#mask-6)"></path>
            <path d="M30,19.5 C30,20.3288905 29.3286486,21 28.4994595,21 C27.6713514,21 27,20.3288905 27,19.5 C27,18.6711095 27.6713514,18 28.4994595,18 C29.3286486,18 30,18.6711095 30,19.5 Z" id="Stroke-15" stroke="#060101" stroke-width="0.75" mask="url(#mask-6)"></path>
            <path d="M23.293,3.70973 C23.488,3.90573 23.744,4.00373 24,4.00373 C24.256,4.00373 24.512,3.90573 24.707,3.70973 C25.098,3.31873 25.098,2.68573 24.707,2.29473 L22.707,0.29373 C22.316,-0.09827 21.684,-0.09827 21.293,0.29373 C20.902,0.68473 20.902,1.31673 21.293,1.70873 L23.293,3.70973 Z" id="Fill-1" fill="#000000" mask="url(#mask-6)"></path>
            <path d="M28,4.00363 C28.256,4.00363 28.512,3.90563 28.707,3.70963 L30.707,1.70863 C31.098,1.31663 31.098,0.68463 30.707,0.29363 C30.316,-0.09837 29.684,-0.09837 29.293,0.29363 L27.293,2.29463 C26.902,2.68563 26.902,3.31863 27.293,3.70963 C27.488,3.90563 27.744,4.00363 28,4.00363" id="Fill-4" fill="#000000" mask="url(#mask-6)"></path>
        </g>
    </g>
</svg>