<?xml version="1.0" encoding="UTF-8"?>
<svg width="35px" height="35px" viewBox="0 0 35 35" version="1.1" xmlns="http://www.w3.org/2000/svg" xmlns:xlink="http://www.w3.org/1999/xlink">
    <!-- Generator: Sketch 63.1 (92452) - https://sketch.com -->
    <title>london-eye</title>
    <desc>Created with Sketch.</desc>
    <g id="Page-2" stroke="none" stroke-width="1" fill="none" fill-rule="evenodd">
        <g id="DEMO-[基本設定E-01]-" transform="translate(-706.000000, -1283.000000)" fill="#000000" fill-rule="nonzero">
            <g id="基本情報設定" transform="translate(214.000000, 713.000000)">
                <g id="london-eye" transform="translate(492.000000, 570.000000)">
                    <path d="M31.2412425,33.4706782 L25.7696536,33.4706782 L22.0466417,25.4782241 C22.4255001,25.2887949 22.789787,25.0775085 23.1395024,24.8516507 C23.5985038,26.8770857 26.1339405,27.6420881 27.6275167,26.148512 C29.1210929,24.6549358 28.3560904,22.1122134 26.3306554,21.6604976 C27.0665149,20.5312083 27.6056595,19.26349 27.8898032,17.9010571 C29.6529517,19.0084892 31.9772186,17.7407709 31.9772186,15.6424785 C31.9772186,13.544186 29.6529517,12.269182 27.8898032,13.3838998 C27.6056595,12.0214669 27.0665149,10.7537486 26.3306554,9.62445926 C27.5182306,9.35488697 28.4070906,8.29845503 28.4070906,7.02345097 C28.4070906,5.55173199 27.2122296,4.35687104 25.7405107,4.35687104 C24.4509351,4.35687104 23.4017889,5.26030249 23.1395024,6.43330623 C22.010213,5.69744674 20.7424947,5.15830216 19.3800618,4.86687266 C20.4874939,3.10372418 19.2197756,0.779573914 17.1214832,0.779573914 C15.0231908,0.779573914 13.7481867,3.10372418 14.8629045,4.86687266 C13.5004716,5.15101643 12.2327533,5.690161 11.103464,6.43330623 C10.8411774,5.26030249 9.79203122,4.35687104 8.50245568,4.35687104 C7.03073671,4.35687104 5.83587575,5.55173199 5.83587575,7.02345097 C5.83587575,8.32031225 6.74659294,9.36217271 7.91231094,9.62445926 C7.17645146,10.7537486 6.63730688,12.0214669 6.34587738,13.3838998 C4.5827289,12.2764677 2.25857863,13.544186 2.25857863,15.6424785 C2.25857863,17.7407709 4.5827289,19.0157749 6.34587738,17.9010571 C6.63002114,19.26349 7.16916572,20.5312083 7.91231094,21.6604976 C5.89416165,22.1194991 5.12187348,24.6549358 6.61544967,26.148512 C8.10902586,27.6420881 10.6444625,26.8843714 11.103464,24.8516507 C11.4531794,25.0847943 11.8174663,25.2887949 12.1963246,25.4782241 L8.47331273,33.4706782 L2.98715238,33.4706782 C2.57915108,33.4706782 2.24400716,33.8058221 2.24400716,34.2138234 C2.24400716,34.6218247 2.57915108,34.9569686 2.98715238,34.9569686 L31.2339567,34.9569686 C31.641958,34.9569686 31.9772186,34.6218247 31.9772186,34.2138234 C31.9843877,33.7985363 31.6492438,33.4706782 31.2412425,33.4706782 Z M18.2944869,27.8242316 C18.2944869,28.4726622 17.7626281,29.0045211 17.1141974,29.0045211 C16.4584811,29.0045211 15.933908,28.4726622 15.933908,27.8242316 C15.933908,27.1685152 16.4657668,26.6439421 17.1141974,26.6439421 C17.7626281,26.6439421 18.2944869,27.1758009 18.2944869,27.8242316 Z M10.9286063,22.8699301 L15.1689055,18.6296308 C15.5331924,18.8627744 15.9411937,19.0376321 16.3783379,19.1323467 L16.3783379,25.1285087 C14.3019027,24.9682225 12.4148967,24.1449341 10.9286063,22.8699301 L10.9286063,22.8699301 Z M20.1159213,17.5804846 C20.3490649,17.2161978 20.5239226,16.8081965 20.6186372,16.3710522 L26.6147992,16.3710522 C26.4545129,18.4402017 25.6312246,20.3272077 24.3562205,21.8134981 L20.1159213,17.5804846 Z M17.1141974,17.7189136 C15.9557652,17.7189136 15.015905,16.7790535 15.015905,15.6206212 C15.015905,14.462189 15.9557652,13.5223288 17.1141974,13.5223288 C18.2726297,13.5223288 19.2124898,14.462189 19.2124898,15.6206212 C19.2124898,16.7863392 18.2726297,17.7189136 17.1141974,17.7189136 Z M20.6186372,14.8847617 C20.5239226,14.4476175 20.3563506,14.0396162 20.1159213,13.6753293 L24.3562205,9.43503009 C25.6312246,10.9213205 26.4545129,12.8083266 26.6147992,14.877476 L20.6186372,14.8847617 Z M19.0667751,12.6261831 C18.7024882,12.3930395 18.2944869,12.2181818 17.8573427,12.1234672 L17.8573427,6.12730525 C19.9264921,6.28759148 21.8134981,7.11087982 23.2997886,8.38588388 L19.0667751,12.6261831 Z M16.3710522,12.1234672 C15.933908,12.2181818 15.5259067,12.3857538 15.1616198,12.6261831 L10.9286063,8.38588388 C12.4148967,7.11087982 14.3019027,6.28759148 16.3710522,6.12730525 L16.3710522,12.1234672 Z M14.1124736,13.6753293 C13.87933,14.0396162 13.7044723,14.4476175 13.6097577,14.8847617 L7.61359571,14.8847617 C7.77388193,12.8156123 8.59717027,10.9286063 9.87217434,9.44231582 L14.1124736,13.6753293 Z M13.6097577,16.3710522 C13.7044723,16.8081965 13.8720442,17.2161978 14.1124736,17.5804846 L9.87217434,21.8207839 C8.59717027,20.3344934 7.77388193,18.4474874 7.61359571,16.3783379 L13.6097577,16.3710522 Z M17.8573427,25.1285087 L17.8573427,19.1323467 C18.2944869,19.0376321 18.7024882,18.8700602 19.0667751,18.6296308 L23.3070743,22.8699301 C21.8134981,24.1449341 19.9264921,24.9682225 17.8573427,25.1285087 Z M25.7405107,25.4345097 C24.6986502,25.4345097 24.1595056,24.1595056 24.9026508,23.4163604 C25.3616523,22.9573589 26.1120833,22.9573589 26.5783705,23.4163604 C27.0373719,23.8753618 26.7896569,25.4345097 25.7405107,25.4345097 Z M29.310522,14.4476175 C29.9589527,14.4476175 30.4908115,14.9794763 30.4908115,15.627907 C30.4908115,16.2763376 29.9589527,16.8081965 29.310522,16.8081965 C28.6548057,16.8081965 28.1302326,16.2763376 28.1302326,15.627907 C28.1302326,14.9721906 28.6620914,14.4476175 29.310522,14.4476175 Z M25.7405107,5.82130428 C26.396227,5.82130428 26.9208001,6.35316312 26.9208001,7.00159376 C26.9208001,7.65731013 26.3889413,8.18188323 25.7405107,8.18188323 C25.0993658,8.18188323 24.5602212,7.66459587 24.5602212,7.00159376 C24.5602212,6.68830704 25.0847943,5.82130428 25.7405107,5.82130428 Z M15.933908,3.43158237 C15.933908,2.77586599 16.4657668,2.25129289 17.1141974,2.25129289 C17.7626281,2.25129289 18.2944869,2.78315173 18.2944869,3.43158237 C18.2944869,4.08001301 17.7626281,4.61187185 17.1141974,4.61187185 C16.4584811,4.61187185 15.933908,4.08001301 15.933908,3.43158237 L15.933908,3.43158237 Z M7.65002439,6.16373394 C8.10902586,5.70473248 8.85945682,5.70473248 9.32574402,6.16373394 C9.78474549,6.6227354 9.79203122,7.36588063 9.32574402,7.83945357 C8.86674256,8.29845503 8.1163116,8.30574077 7.65002439,7.83945357 C7.43145227,7.61359571 7.18373719,6.63002114 7.65002439,6.16373394 L7.65002439,6.16373394 Z M4.91787282,16.8081965 C4.26215645,16.8081965 3.73758335,16.2763376 3.73758335,15.627907 C3.73758335,14.9721906 4.26944219,14.4476175 4.91787282,14.4476175 C5.56630346,14.4476175 6.0981623,14.9794763 6.0981623,15.627907 C6.0981623,16.2763376 5.56630346,16.8081965 4.91787282,16.8081965 Z M8.48788421,25.4345097 C7.43873801,25.4345097 6.90687917,24.1595056 7.65002439,23.4163604 C8.10902586,22.9573589 8.85945682,22.9573589 9.32574402,23.4163604 C9.78474549,23.8753618 9.53703041,25.4345097 8.48788421,25.4345097 Z M10.1053179,33.4706782 L13.5514718,26.0537974 C13.9740446,26.1995121 14.4111888,26.3160839 14.8483331,26.4107985 C13.740901,28.173947 15.0086193,30.4980973 17.1069117,30.4980973 C19.2052041,30.4980973 20.4802082,28.173947 19.3654903,26.4107985 C19.8099203,26.3160839 20.2397788,26.1995121 20.6623516,26.0537974 L24.1157912,33.4706782 L10.1053179,33.4706782 Z" id="Shape"></path>
                    <path d="M33.0991055,0.014571475 L28.6329484,0.014571475 C27.6056595,0.014571475 26.7750854,0.845145552 26.7750854,1.87243454 C26.7750854,2.89972353 27.6056595,3.73029761 28.6329484,3.73029761 L33.0918198,3.73029761 C34.1191088,3.73029761 34.94973,2.89972353 34.94973,1.87243454 C34.9569686,0.85243129 34.1191088,0.014571475 33.0991055,0.014571475 Z M33.0991055,2.24400716 L28.6329484,2.24400716 C28.4289478,2.24400716 28.2613758,2.07643519 28.2613758,1.87243454 C28.2613758,1.66843389 28.4289478,1.50086193 28.6329484,1.50086193 L33.0918198,1.50086193 C33.2958205,1.50086193 33.4633924,1.66843389 33.4633924,1.87243454 C33.4706782,2.07643519 33.3031062,2.24400716 33.0991055,2.24400716 Z" id="Shape"></path>
                    <path d="M3.358725,5.96701903 C4.38601399,5.96701903 5.21658806,5.13644495 5.21658806,4.10915596 C5.21658806,3.08186697 4.38601399,2.25129289 3.358725,2.25129289 L1.87243454,2.25129289 C0.845145552,2.25129289 0.014571475,3.08186697 0.014571475,4.10915596 C0.014571475,5.13644495 0.845145552,5.96701903 1.87243454,5.96701903 L3.358725,5.96701903 Z M1.50086193,4.10187022 C1.50086193,3.89786957 1.66843389,3.73029761 1.87243454,3.73029761 L3.358725,3.73029761 C3.56272565,3.73029761 3.73029761,3.89786957 3.73029761,4.10187022 C3.73029761,4.30587087 3.56272565,4.47344284 3.358725,4.47344284 L1.87243454,4.47344284 C1.66843389,4.47344284 1.50086193,4.31315661 1.50086193,4.10187022 Z" id="Shape"></path>
                </g>
            </g>
        </g>
    </g>
</svg>