<?xml version="1.0" encoding="UTF-8"?>
<svg width="35px" height="35px" viewBox="0 0 35 35" version="1.1" xmlns="http://www.w3.org/2000/svg" xmlns:xlink="http://www.w3.org/1999/xlink">
    <!-- Generator: Sketch 63.1 (92452) - https://sketch.com -->
    <title>masks</title>
    <desc>Created with Sketch.</desc>
    <g id="Page-2" stroke="none" stroke-width="1" fill="none" fill-rule="evenodd">
        <g id="DEMO-[基本設定E-01]-" transform="translate(-959.000000, -1347.000000)" fill="#000000" fill-rule="nonzero">
            <g id="masks" transform="translate(959.000000, 1347.000000)">
                <path d="M33.8521777,3.17857422 C33.0974902,2.56108398 32.0999219,2.38936523 31.1836328,2.71919922 C26.1885449,4.5171875 20.659707,3.70364258 16.3942187,0.542773437 C15.6118457,-0.0369824219 14.6070996,-0.159892578 13.7065332,0.213964844 C12.6842871,0.638339844 11.9415625,1.63392578 11.7681348,2.81223633 L10.656748,10.3644434 C10.6279004,10.5605664 10.6036328,10.757168 10.5814844,10.9539062 C8.32049805,11.1782617 6.00414062,10.9158984 3.78745117,10.1406348 C2.86822266,9.81920898 1.87229492,9.99988281 1.12321289,10.624209 C0.272890625,11.3328223 -0.140957031,12.5040234 0.0431347656,13.6806934 L1.22301758,21.2224414 C1.61991211,23.7593262 2.57810547,26.1869727 3.9940332,28.2428125 C5.42007812,30.3133496 7.28601562,31.9720215 9.39018555,33.0395215 L12.17125,34.4503906 C12.8966797,34.8183691 13.6780273,34.9974024 14.4534277,34.9974024 C15.7506836,34.9974024 17.0303711,34.4957812 17.9980664,33.53875 L20.2153027,31.345918 C21.4394141,30.1352734 22.4453223,28.6627441 23.1823047,27.0204102 L25.7892578,25.6679883 C27.8836523,24.581416 29.7344141,22.9059277 31.1415918,20.8224707 C32.5387891,18.7538477 33.4749023,16.3176562 33.8487598,13.7772168 L34.9600781,6.22507812 C35.1333691,5.04683594 34.7088574,3.87939453 33.8521777,3.17857422 Z M29.4419727,19.6746484 C28.2258594,21.4752344 26.6361621,22.9182324 24.844668,23.8475781 L24.1347559,24.2158984 C24.6428027,22.0841113 24.7296875,19.8159473 24.3829004,17.5991895 L23.2030176,10.0574414 C23.0189258,8.88077148 22.2671777,7.89188477 21.2410352,7.476875 C20.3371191,7.1112207 19.3335352,7.24329102 18.5564941,7.83008789 C16.7840039,9.16863281 14.7862012,10.0966797 12.6953613,10.597002 L13.797041,3.11083008 C13.8795508,2.55021484 14.2105469,2.22523437 14.4928027,2.10806641 C14.5877539,2.06862305 14.6807227,2.04893555 14.7712305,2.04893555 C14.9115039,2.04893555 15.0459668,2.09617187 15.173252,2.19050781 C19.9912207,5.76078125 26.236123,6.67953125 31.8782324,4.6487793 C32.1234375,4.56039062 32.3507324,4.59990234 32.553623,4.76581055 C32.7901465,4.95933594 33.0135449,5.36586914 32.9310352,5.92655273 L31.8197168,13.4787598 C31.4903613,15.7167773 30.6681348,17.8592285 29.4419727,19.6746484 L29.4419727,19.6746484 Z M13.0990234,32.6215039 L10.3180273,31.2106348 C8.51819336,30.2975586 6.91543945,28.8690527 5.68298828,27.079541 C4.44041992,25.2754004 3.59884766,23.1404004 3.24918945,20.905459 L2.06923828,13.3637109 C1.98166992,12.8038477 2.20130859,12.3952637 2.43612305,12.1995508 C2.56942383,12.0884668 2.71386719,12.0328223 2.86767578,12.0328223 C2.9462207,12.0328223 3.02722656,12.0473145 3.11041992,12.0764355 C8.77084961,14.0559863 15.0070703,13.080293 19.7923633,9.46661133 C20.0004492,9.30952148 20.229043,9.2797168 20.4720605,9.37794922 C20.7554102,9.49258789 21.0893457,9.81449219 21.1769141,10.3744238 L22.3567969,17.9161719 C22.7064551,20.1511133 22.5571582,22.4411523 21.9249707,24.5385547 C21.2979785,26.6189355 20.2080566,28.4686719 18.773125,29.8878125 L16.5558887,32.0806445 C15.6386426,32.9878418 14.2494434,33.2052246 13.0990234,32.6215039 L13.0990234,32.6215039 Z" id="Shape"></path>
                <path d="M9.1175,19.7955078 C9.54262695,20.1696387 10.1905371,20.1283496 10.564668,19.7032227 C10.9387988,19.2780957 10.8975098,18.6301855 10.4723828,18.2560547 C9.59314453,17.4822266 8.52605469,17.147334 7.46785156,17.3127637 C6.40964844,17.4783301 5.49588867,18.1231641 4.89494141,19.1285938 C4.60441406,19.6146973 4.76293945,20.2442871 5.24904297,20.5348145 C5.41385742,20.6333203 5.59514648,20.6802148 5.77417969,20.6802148 C6.12308594,20.6802148 6.46331055,20.502002 6.65533203,20.1807129 C6.93813477,19.7075293 7.33926758,19.4085938 7.78483398,19.3388672 C8.23040039,19.2691406 8.70378906,19.4312891 9.1175,19.7955078 Z" id="Path"></path>
                <path d="M15.0620312,18.9995996 C15.2268457,19.0981055 15.4080664,19.1449316 15.5870996,19.1449316 C15.9360059,19.1449316 16.2762305,18.9667187 16.468252,18.6453613 C16.7509863,18.1722461 17.1521191,17.8733105 17.5977539,17.803584 C18.0429785,17.7337891 18.5165723,17.8960059 18.9304199,18.2602246 C19.3555469,18.6343555 20.003457,18.5930664 20.3775879,18.1679395 C20.7517187,17.7428125 20.7104297,17.0949023 20.2853027,16.7207715 C19.4059961,15.946875 18.3386328,15.611709 17.2807715,15.7774805 C16.2225,15.9430469 15.3087402,16.5878809 14.7078613,17.5933789 C14.417334,18.0795508 14.5758594,18.7090723 15.0620312,18.9995996 L15.0620312,18.9995996 Z" id="Path"></path>
                <path d="M17.6604395,27.4994727 C18.4447949,26.4241797 18.763418,25.1077832 18.5577246,23.7927539 C18.516709,23.5305957 18.4534766,23.2677539 18.3698047,23.0114746 C18.2610449,22.6784961 17.9898633,22.4240625 17.6505957,22.3366992 C17.3114648,22.249541 16.9510059,22.3412793 16.695,22.5804688 C15.826084,23.3923047 14.742998,23.9190137 13.5629102,24.1036523 C12.3827539,24.2883594 11.1906348,24.1175293 10.1152051,23.6098926 C9.79842773,23.4603223 9.42730469,23.4828809 9.13083008,23.6696387 C8.83449219,23.8563965 8.65388672,24.1815137 8.65203757,24.5317871 C8.65067383,24.8014648 8.67077148,25.0710742 8.71178711,25.3331641 C8.91748047,26.648125 9.62301758,27.8042871 10.6983105,28.5886426 C11.5603906,29.2174805 12.577168,29.5469727 13.6241602,29.5469727 C13.8831738,29.5469727 14.1441699,29.5268066 14.4048926,29.4859961 C15.7199219,29.2803027 16.876084,28.5747656 17.6604395,27.4994727 L17.6604395,27.4994727 Z M11.9069043,26.9318164 C11.587666,26.698916 11.3237988,26.4103711 11.1251465,26.0821777 C12.0263965,26.2568359 12.9561523,26.2743359 13.8798926,26.1298242 C14.8030176,25.9853809 15.6823242,25.6850781 16.4866406,25.2440234 C16.217373,26.3651855 15.295957,27.2707422 14.0879785,27.4597559 C13.3140137,27.5810254 12.5396387,27.3933789 11.9069043,26.9318164 Z" id="Shape"></path>
                <path d="M4.76750944,3.35226804 C5.11341164,3.35226804 5.39386018,3.0718195 5.39386018,2.72591731 L5.39386018,0.846865112 C5.39386018,0.50096292 5.11341164,0.22051438 4.76750944,0.22051438 C4.42160725,0.22051438 4.14115871,0.50096292 4.14115871,0.846865112 L4.14115871,2.72591731 C4.14115871,3.0718195 4.42160725,3.35226804 4.76750944,3.35226804 Z" id="Path"></path>
                <path d="M4.76750944,4.60496951 C4.42160725,4.60496951 4.14115871,4.88541805 4.14115871,5.23132024 L4.14115871,7.11037244 C4.14115871,7.45627463 4.42160725,7.73672317 4.76750944,7.73672317 C5.11341164,7.73672317 5.39386018,7.45627463 5.39386018,7.11037244 L5.39386018,5.23132024 C5.39386018,4.88541805 5.11341164,4.60496951 4.76750944,4.60496951 Z" id="Path"></path>
                <path d="M3.51480798,3.35226804 L1.63575578,3.35226804 C1.28985359,3.35226804 1.00940505,3.63271658 1.00940505,3.97861878 C1.00940505,4.32452097 1.28985359,4.60496951 1.63575578,4.60496951 L3.51480798,4.60496951 C3.86071017,4.60496951 4.14115871,4.32452097 4.14115871,3.97861878 C4.14115871,3.63271658 3.86071017,3.35226804 3.51480798,3.35226804 Z" id="Path"></path>
                <path d="M7.89926311,3.35226804 L6.02021091,3.35226804 C5.67430872,3.35226804 5.39386018,3.63271658 5.39386018,3.97861878 C5.39386018,4.32452097 5.67430872,4.60496951 6.02021091,4.60496951 L7.89926311,4.60496951 C8.2451653,4.60496951 8.52561384,4.32452097 8.52561384,3.97861878 C8.52561384,3.63271658 8.2451653,3.35226804 7.89926311,3.35226804 Z" id="Path"></path>
                <path d="M27.0029604,34.671888 C28.2118174,34.671888 29.195188,33.6885174 29.195188,32.4796604 C29.195188,31.2708035 28.2118174,30.2874329 27.0029604,30.2874329 C25.7941035,30.2874329 24.8107329,31.2708035 24.8107329,32.4796604 C24.8107329,33.6885174 25.7942601,34.671888 27.0029604,34.671888 Z M27.0029604,31.5401343 C27.5211091,31.5401343 27.9424865,31.9615118 27.9424865,32.4796604 C27.9424865,32.9978091 27.5211091,33.4191865 27.0029604,33.4191865 C26.4848118,33.4191865 26.0634343,32.9978091 26.0634343,32.4796604 C26.0634343,31.9615118 26.4849684,31.5401343 27.0029604,31.5401343 Z" id="Shape"></path>
                <circle id="Oval" cx="32.953449" cy="26.9137836" r="1"></circle>
                <circle id="Oval" cx="13.5365763" cy="29.857671" r="1"></circle>
            </g>
        </g>
    </g>
</svg>