<?xml version="1.0" encoding="UTF-8"?>
<svg width="35px" height="30px" viewBox="0 0 35 30" version="1.1" xmlns="http://www.w3.org/2000/svg" xmlns:xlink="http://www.w3.org/1999/xlink">
    <!-- Generator: Sketch 63.1 (92452) - https://sketch.com -->
    <title>film</title>
    <desc>Created with Sketch.</desc>
    <g id="Page-2" stroke="none" stroke-width="1" fill="none" fill-rule="evenodd">
        <g id="DEMO-[基本設定E-01]-" transform="translate(-926.000000, -1197.000000)" fill="#000000" fill-rule="nonzero">
            <g id="基本情報設定" transform="translate(214.000000, 713.000000)">
                <g id="電影" transform="translate(691.000000, 469.000000)">
                    <g id="film" transform="translate(21.000000, 15.000000)">
                        <path d="M33.9746094,0 L1.02539062,0 C0.459022539,0 0,0.470666636 0,1.05140187 L0,28.9097181 C0,29.4904534 0.459022539,29.96112 1.02539062,29.96112 L33.9746094,29.96112 C34.5409775,29.96112 35,29.4904534 35,28.9097181 L35,1.05140187 C35,0.470666636 34.5409775,0 33.9746094,0 Z M11.0443115,26.0276723 L11.0443115,27.8583163 L7.60364534,27.8583163 L7.60364534,26.0276723 L11.0443115,26.0276723 Z M13.0950928,26.0276723 L16.535759,26.0276723 L16.535759,27.8583163 L13.0950928,27.8583163 L13.0950928,26.0276723 Z M18.5865402,26.0276723 L22.0274735,26.0276723 L22.0274735,27.8583163 L18.5865402,27.8583163 L18.5865402,26.0276723 Z M24.0782547,26.0276723 L27.5189209,26.0276723 L27.5189209,27.8583163 L24.0782547,27.8583163 L24.0782547,26.0276723 Z M2.05078125,23.9248686 L2.05078125,6.0362515 L32.9492188,6.0362515 L32.9492188,23.9248686 L2.05078125,23.9248686 Z M24.0782547,3.93344776 L24.0782547,2.10280374 L27.5189209,2.10280374 L27.5189209,3.93344776 L24.0782547,3.93344776 Z M22.0274735,3.93344776 L18.5865402,3.93344776 L18.5865402,2.10280374 L22.0274735,2.10280374 L22.0274735,3.93344776 Z M16.535759,3.93344776 L13.0950928,3.93344776 L13.0950928,2.10280374 L16.535759,2.10280374 L16.535759,3.93344776 Z M11.0443115,3.93344776 L7.60364534,3.93344776 L7.60364534,2.10280374 L11.0443115,2.10280374 L11.0443115,3.93344776 Z M32.9492188,3.93344776 L29.5697021,3.93344776 L29.5697021,2.10280374 L32.9492188,2.10280374 L32.9492188,3.93344776 Z M5.55286409,2.10280374 L5.55286409,3.93344776 L2.05078125,3.93344776 L2.05078125,2.10280374 L5.55286409,2.10280374 Z M2.05078125,26.0276723 L5.55286409,26.0276723 L5.55286409,27.8583163 L2.05078125,27.8583163 L2.05078125,26.0276723 Z M29.5697021,27.8583163 L29.5697021,26.0276723 L32.9492188,26.0276723 L32.9492188,27.8583163 L29.5697021,27.8583163 Z" id="Shape"></path>
                        <path d="M21.2920761,13.897397 C21.2643051,13.876588 21.235199,13.857148 21.2052917,13.8393509 L15.3381348,10.3275592 C14.9130249,10.0425307 14.3544006,10.010222 13.8951111,10.250073 C13.4427643,10.485817 13.1618499,10.9460791 13.1618499,11.4509711 L13.1618499,18.5104227 C13.1618499,19.0153147 13.4427643,19.475303 13.8951111,19.7113208 C14.1007233,19.8186514 14.3263626,19.8714953 14.5509338,19.8714953 C14.8278427,19.8714953 15.1034164,19.7912712 15.3381348,19.6335609 L21.2052917,16.1220429 C21.235199,16.1042457 21.2643051,16.0848057 21.2920761,16.0639968 C21.6389465,15.8047058 21.8381501,15.4101562 21.8381501,14.9808338 C21.8381501,14.5515114 21.6389465,14.1564143 21.2920761,13.897397 L21.2920761,13.897397 Z M15.2128983,17.2736565 L15.2128983,12.6874635 L19.0442276,14.98056 L15.2128983,17.2736565 Z" id="Shape"></path>
                    </g>
                </g>
            </g>
        </g>
    </g>
</svg>