<?xml version="1.0" encoding="UTF-8"?>
<svg width="38px" height="35px" viewBox="0 0 38 35" version="1.1" xmlns="http://www.w3.org/2000/svg" xmlns:xlink="http://www.w3.org/1999/xlink">
    <!-- Generator: Sketch 63.1 (92452) - https://sketch.com -->
    <title>bank (6)</title>
    <desc>Created with Sketch.</desc>
    <g id="Page-2" stroke="none" stroke-width="1" fill="none" fill-rule="evenodd">
        <g id="DEMO-[基本設定E-01]-" transform="translate(-1113.000000, -1194.000000)" fill="#000000" fill-rule="nonzero">
            <g id="bank-(6)" transform="translate(1113.000000, 1194.000000)">
                <path d="M36.65391,9.76034858 L29.6404393,6.15652757 L34.3407992,6.15652757 C35.3861473,6.15652757 36.2313224,5.30062008 36.2313224,4.24199765 C36.2313224,3.28848668 35.5344237,2.49264287 34.629938,2.34999162 C34.1332123,0.33785822 31.8423429,-0.593128875 30.1149236,0.480509469 C29.9963025,0.217730853 29.736819,0.0300318418 29.4254387,0.0300318418 C29.0102649,0.0300318418 28.6692294,0.375398022 28.6692294,0.795843808 C28.6692294,1.10367019 28.8545748,1.37395676 29.1140584,1.49408413 C28.965782,1.74935478 28.8397471,2.02714932 28.765609,2.32746774 L27.5349154,2.32746774 C26.5414639,2.32746774 25.7185303,3.10829563 25.6518059,4.09934641 L18.7866116,0.570604994 C18.5641971,0.457985587 18.3047135,0.457985587 18.0897129,0.578112955 C11.7360719,4.00925088 6.48708965,6.4343221 0.400346104,9.7753645 C0.0963796177,9.94053963 -0.059310534,10.2934138 0.029655267,10.63878 C0.111207251,10.9766382 0.415173738,11.2168929 0.763623125,11.2168929 L3.78104654,11.2168929 L3.75139127,13.5068208 C3.74397746,13.9347746 4.08501303,14.2801408 4.50760058,14.2801408 L5.68639744,14.2801408 L5.68639744,15.8117647 C5.68639744,16.2322105 6.02743301,16.5775767 6.44260675,16.5775767 L7.19140224,16.5775767 L7.19140224,27.2989442 L6.09415736,27.2989442 C5.67898363,27.2989442 5.33794806,27.6443104 5.33794806,28.0647562 L5.33794806,30.3621921 L3.78104654,30.3621921 C3.3658728,30.3621921 3.02483723,30.7075582 3.02483723,31.128004 L3.02483723,33.4254399 L2.19448976,33.4254399 C1.77931602,33.4254399 1.43828045,33.7708061 1.43828045,34.1912519 C1.43828045,34.6116977 1.77931602,34.9570639 2.19448976,34.9570639 L34.7189038,34.9570639 C35.1340776,34.9570639 35.4751131,34.6116977 35.4751131,34.1912519 C35.4751131,33.7708061 35.1340776,33.4254399 34.7189038,33.4254399 L34.0368327,33.4254399 L34.0368327,31.128004 C34.0368327,30.7075582 33.6957971,30.3621921 33.2806234,30.3621921 L31.7237218,30.3621921 L31.7237218,28.0647562 C31.7237218,27.6443104 31.3826863,27.2989442 30.9675125,27.2989442 L29.8776815,27.2989442 L29.8776815,16.5775767 L30.6338908,16.5775767 C31.0490645,16.5775767 31.3901001,16.2322105 31.3901001,15.8117647 L31.3901001,14.2801408 L32.5244141,14.2801408 C32.9395878,14.2801408 33.2806234,13.9347746 33.2806234,13.5143288 L33.2806234,11.2168929 L36.3054606,11.2168929 C36.65391,11.2168929 36.9578765,10.9766382 37.0394285,10.631272 C37.1283943,10.2783979 36.9652903,9.92552371 36.65391,9.76034858 Z M27.5349154,3.85909167 L29.4254387,3.85909167 C29.8406124,3.85909167 30.181648,3.51372549 30.181648,3.09327971 C30.181648,2.24488017 30.8637191,1.56165577 31.6940666,1.56165577 C32.5318279,1.56165577 33.2064852,2.25238813 33.2064852,3.09327971 C33.2064852,3.51372549 33.5475208,3.85909167 33.9626945,3.85909167 L34.3407992,3.85909167 C34.548386,3.85909167 34.7189038,4.03177476 34.7189038,4.24199765 C34.7189038,4.45222055 34.548386,4.62490364 34.3407992,4.62490364 L27.5349154,4.62490364 C27.3273285,4.62490364 27.1568107,4.45222055 27.1568107,4.24199765 C27.1568107,4.03177476 27.3273285,3.85909167 27.5349154,3.85909167 L27.5349154,3.85909167 Z M5.10811974,8.99453662 C5.28605134,9.03958438 5.0488092,9.00955254 10.5943441,9.0170605 C11.0095179,9.0170605 11.3505534,8.67169432 11.3505534,8.25124853 C11.3505534,7.83080275 11.0095179,7.48543657 10.5943441,7.48543657 L8.04399117,7.48543657 C11.5507265,5.69854198 14.7312539,4.12187029 18.4604037,2.11724485 L33.1620023,9.67776102 C30.1890618,9.67776102 8.17002605,9.67776102 3.80328799,9.67776102 C4.23328936,9.44501425 4.67070455,9.21977543 5.10811974,8.99453662 L5.10811974,8.99453662 Z M14.7534953,14.2726328 L14.7534953,15.8042567 C14.7534953,16.2247025 15.0945309,16.5700687 15.5097046,16.5700687 L16.2659139,16.5700687 L16.2659139,24.5360147 L11.7286581,24.5360147 L11.7286581,16.5775767 L12.4848674,16.5775767 C12.9000411,16.5775767 13.2410767,16.2322105 13.2410767,15.8117647 L13.2410767,14.2801408 L14.7534953,14.2726328 Z M23.828007,14.2726328 L23.828007,15.8042567 C23.828007,16.2247025 24.1690426,16.5700687 24.5842163,16.5700687 L25.3404256,16.5700687 L25.3404256,24.5360147 L20.8031698,24.5360147 L20.8031698,16.5775767 L21.5593791,16.5775767 C21.9745528,16.5775767 22.3155884,16.2322105 22.3155884,15.8117647 L22.3155884,14.2801408 L23.828007,14.2726328 Z M20.8031698,27.2989442 L20.8031698,26.0751466 L25.3404256,26.0751466 L25.3404256,27.2989442 L20.8031698,27.2989442 Z M11.7286581,27.2989442 L11.7286581,26.0751466 L16.2659139,26.0751466 L16.2659139,27.2989442 L11.7286581,27.2989442 Z M17.7783326,16.5775767 L19.2907512,16.5775767 L19.2907512,27.2989442 L17.7783326,27.2989442 L17.7783326,16.5775767 Z M20.8031698,15.0459527 C19.8542012,15.0459527 17.8598845,15.0459527 16.2659139,15.0459527 L16.2659139,14.2801408 L20.8031698,14.2801408 L20.8031698,15.0459527 Z M11.7286581,15.0459527 C10.7796895,15.0459527 8.78537284,15.0459527 7.19140224,15.0459527 L7.19140224,14.2801408 L11.7286581,14.2801408 L11.7286581,15.0459527 Z M8.70382086,16.5775767 L10.2162395,16.5775767 L10.2162395,27.2989442 L8.70382086,27.2989442 L8.70382086,16.5775767 Z M32.5318279,33.4254399 L4.53725585,33.4254399 L4.53725585,31.893816 L32.5244141,31.893816 L32.5318279,33.4254399 Z M30.2187171,30.3621921 L6.85036667,30.3621921 L6.85036667,28.8305681 L30.2187171,28.8305681 L30.2187171,30.3621921 Z M28.3652629,27.2989442 L26.8528442,27.2989442 L26.8528442,16.5775767 L28.3652629,16.5775767 L28.3652629,27.2989442 Z M29.8776815,15.0459527 C28.9287129,15.0459527 26.9343962,15.0459527 25.3404256,15.0459527 L25.3404256,14.2801408 L29.8776815,14.2801408 L29.8776815,15.0459527 Z M31.7756186,12.7410089 C26.8899133,12.7410089 13.8415959,12.7410089 5.27122371,12.7410089 L5.29346516,11.209385 L31.7830324,11.209385 L31.7830324,12.7410089 L31.7756186,12.7410089 Z" id="Shape"></path>
                <path d="M18.5345419,8.91194905 C19.9950638,8.91194905 21.1812744,7.71067538 21.1812744,6.23160717 C21.1812744,4.75253896 19.9950638,3.55126529 18.5345419,3.55126529 C17.07402,3.55126529 15.8878093,4.75253896 15.8878093,6.23160717 C15.8878093,7.71067538 17.07402,8.91194905 18.5345419,8.91194905 Z M18.5345419,5.08288922 C19.1573025,5.08288922 19.6688558,5.6009385 19.6688558,6.23160717 C19.6688558,6.86227585 19.1573025,7.38032512 18.5345419,7.38032512 C17.9117813,7.38032512 17.4002279,6.86227585 17.4002279,6.23160717 C17.4002279,5.6009385 17.9117813,5.08288922 18.5345419,5.08288922 Z" id="Shape"></path>
            </g>
        </g>
    </g>
</svg>