<?xml version="1.0" encoding="UTF-8"?>
<svg width="29px" height="35px" viewBox="0 0 29 35" version="1.1" xmlns="http://www.w3.org/2000/svg" xmlns:xlink="http://www.w3.org/1999/xlink">
    <!-- Generator: Sketch 63.1 (92452) - https://sketch.com -->
    <title>virtual-reality</title>
    <desc>Created with Sketch.</desc>
    <g id="Page-2" stroke="none" stroke-width="1" fill="none" fill-rule="evenodd">
        <g id="DEMO-[基本設定E-01]-" transform="translate(-708.000000, -1338.000000)" fill="#000000" fill-rule="nonzero">
            <g id="virtual-reality" transform="translate(708.000000, 1338.000000)">
                <path d="M28.5067991,9.13665771 L15.053582,0.172767656 C14.7078604,-0.0576782227 14.2574071,-0.0576782227 13.9114184,0.172767656 L0.458468455,9.13665771 C0.172059257,9.32731625 0,9.648819 0,9.99275211 C0,9.99275211 0.000534345519,25.0422287 0.00160303656,25.0566483 C0.0173662123,25.3818893 0.185952241,25.6817627 0.458468455,25.8633423 L13.9114184,34.8272323 C14.0842792,34.9423218 14.2835901,35 14.4826338,35 C14.6816775,35 14.8807212,34.9423218 15.053582,34.8272323 L28.5065319,25.8633423 C28.7785138,25.6820297 28.9470998,25.3834915 28.9633973,25.0593185 C28.964466,25.0435638 28.9650007,9.99275211 28.9650007,9.99275211 C28.9650007,9.648819 28.7932082,9.32731625 28.5067991,9.13665771 Z M26.9061671,23.0843735 L19.6339917,18.2388687 L19.6339917,16.0009002 C19.6339917,14.7883224 18.8314048,13.7597275 17.7293172,13.4173966 C18.2746167,12.7191162 18.6008347,11.8419266 18.6008347,10.8897018 C18.6008347,8.97537231 17.2863447,7.36198422 15.5123176,6.90402986 L15.5123176,2.95173648 L26.9061671,10.5433655 L26.9061671,23.0843735 Z M11.9287294,19.7350311 C11.6217479,19.6826935 11.3903762,19.4087219 11.3903762,19.0976334 L11.3903762,16.0009002 C11.3903762,15.6441497 11.680793,15.3541565 12.0377358,15.3541565 L16.9275317,15.3541565 C17.2844745,15.3541565 17.5746241,15.6441497 17.5746241,16.0009002 L17.5746241,19.0976334 C17.5746241,19.4087219 17.3432525,19.6826935 17.0365382,19.7350311 C16.5420014,19.8194123 16.1802495,20.2479935 16.1802495,20.7494736 L16.1802495,25.0214005 C16.1802495,25.378151 15.8898327,25.6681442 15.5331571,25.6681442 L13.4321105,25.6681442 C13.0754348,25.6681442 12.785018,25.378151 12.785018,25.0214005 L12.785018,20.7494736 C12.785018,20.2477264 12.4232662,19.8194123 11.9287294,19.7350311 L11.9287294,19.7350311 Z M14.4826338,8.83171078 C15.618118,8.83171078 16.5417342,9.75482942 16.5417342,10.8897018 C16.5417342,12.0245743 15.618118,12.9476929 14.4826338,12.9476929 C13.3471495,12.9476929 12.4235333,12.0245743 12.4235333,10.8897018 C12.4235333,9.75482942 13.3471495,8.83171078 14.4826338,8.83171078 Z M13.4529499,2.95173648 L13.4529499,6.90402986 C11.6789228,7.36198422 10.3644328,8.97537231 10.3644328,10.8897018 C10.3644328,11.8419266 10.6906508,12.7191162 11.2359504,13.4173966 C10.1338627,13.7597275 9.33127583,14.7883224 9.33127583,16.0009002 L9.33127583,18.2388687 L2.05910047,23.0843735 L2.05910047,10.5433655 L13.4529499,2.95173648 Z M14.4826338,32.7342606 L2.88573296,25.0069809 L9.70157724,20.4656219 C9.94550595,20.8819198 10.2979068,21.2287903 10.7259176,21.4648438 L10.7259176,25.0214005 C10.7259176,26.5127563 11.9399506,27.7264023 13.4321105,27.7264023 L15.5331571,27.7264023 C17.0253169,27.7264023 18.2393499,26.5127563 18.2393499,25.0214005 L18.2393499,21.4648438 C18.6670935,21.2290573 19.0197616,20.8819198 19.2636903,20.4656219 L26.0795345,25.0069809 L14.4826338,32.7342606 Z" id="Shape"></path>
            </g>
        </g>
    </g>
</svg>