<?xml version="1.0" encoding="UTF-8"?>
<svg width="35px" height="32px" viewBox="0 0 35 32" version="1.1" xmlns="http://www.w3.org/2000/svg" xmlns:xlink="http://www.w3.org/1999/xlink">
    <!-- Generator: Sketch 63.1 (92452) - https://sketch.com -->
    <title>piano (6)</title>
    <desc>Created with Sketch.</desc>
    <g id="Page-2" stroke="none" stroke-width="1" fill="none" fill-rule="evenodd">
        <g id="DEMO-[基本設定E-01]-" transform="translate(-444.000000, -1283.000000)" fill="#000000" fill-rule="nonzero">
            <g id="基本情報設定" transform="translate(214.000000, 713.000000)">
                <g id="piano-(6)" transform="translate(230.000000, 570.000000)">
                    <path d="M29.3489583,14 L22.2793517,14 C21.7106401,14 21.1563679,13.7716 20.7586458,13.3734667 C20.4038391,13.0183333 20.2106867,12.5613333 20.2147834,12.0866667 C20.239364,9.21033333 19.0142297,6.4608 16.8534882,4.54306667 C14.6943586,2.6268 11.7921025,1.72733333 8.89092105,2.07513333 C6.43111568,2.37006667 4.16674616,3.6 2.5149438,5.5384 C0.893162007,7.4416 -3.817609e-15,9.85613333 -3.817609e-15,12.3373333 L-3.817609e-15,27 C-3.817609e-15,27.5522667 0.451047149,28 1.00740132,28 L4.09676535,28 L4.09676535,31 C4.09676535,31.5522667 4.5478125,32 5.10416667,32 L29.2817982,32 C29.8381524,32 30.2891996,31.5522667 30.2891996,31 L30.2891996,28 L33.3785636,28 C33.9349178,28 34.3859649,27.5522667 34.3859649,27 L34.3859649,19 C34.3859649,16.243 32.1263638,14 29.3489583,14 Z M28.2743969,30 L6.11156798,30 L6.11156798,24 L8.12637061,24 L8.12637061,27 C8.12637061,27.5522667 8.57741776,28 9.13377193,28 C9.6901261,28 10.1411732,27.5522667 10.1411732,27 L10.1411732,24 L12.1559759,24 L12.1559759,27 C12.1559759,27.5522667 12.607023,28 13.1633772,28 C13.7197314,28 14.1707785,27.5522667 14.1707785,27 L14.1707785,24 L16.1855811,24 L16.1855811,27 C16.1855811,27.5522667 16.6366283,28 17.1929825,28 C17.7493366,28 18.2003838,27.5522667 18.2003838,27 L18.2003838,24 L20.2151864,24 L20.2151864,27 C20.2151864,27.5522667 20.6662336,28 21.2225877,28 C21.7789419,28 22.229989,27.5522667 22.229989,27 L22.229989,24 L24.2447917,24 L24.2447917,27 C24.2447917,27.5522667 24.6958388,28 25.252193,28 C25.8085471,28 26.2595943,27.5522667 26.2595943,27 L26.2595943,24 L28.2743969,24 L28.2743969,30 Z M32.3711623,26 L30.2891996,26 L30.2891996,23 C30.2891996,22.4477333 29.8381524,22 29.2817982,22 L5.10416667,22 C4.5478125,22 4.09676535,22.4477333 4.09676535,23 L4.09676535,26 L2.01480263,26 L2.01480263,12.3372667 C2.01480263,8.17473333 5.14123904,4.5392 9.13249589,4.06066667 C11.4926357,3.7778 13.7578783,4.47846667 15.5105551,6.034 C17.2394572,7.5684 18.2197259,9.76833333 18.200048,12.0696667 C18.1913843,13.0817333 18.5919271,14.0448667 19.3279345,14.7816 C20.1013501,15.5559333 21.1771203,16 22.2793517,16 L29.3489583,16 C31.0154016,16 32.3711623,17.3458 32.3711623,19 L32.3711623,26 Z" id="Shape"></path>
                    <path d="M25.252193,12 C26.9186362,12 28.2743969,10.6542 28.2743969,9 L28.2743969,3.9926 C28.331483,3.99706667 28.3890392,4 28.447267,4 C29.462929,4 30.2891996,4.8202 30.2891996,5.82846667 C30.2891996,6.31686667 30.0975918,6.776 29.7497026,7.1214 C29.3562788,7.51193333 29.3563459,8.14506667 29.7497026,8.5356 C30.1431264,8.92606667 30.7810129,8.92613333 31.1743695,8.53553333 C31.902855,7.8124 32.3040022,6.851 32.3040022,5.82846667 C32.3040022,3.7174 30.5738912,2 28.447267,2 C28.3519668,2 28.2743969,1.923 28.2743969,1.82846667 L28.2743969,1 C28.2743969,0.447733333 27.8233498,0 27.2669956,0 C26.7106414,0 26.2595943,0.447733333 26.2595943,1 L26.2595943,6.172 C25.9442777,6.061 25.6053207,6 25.252193,6 C23.5857497,6 22.229989,7.3458 22.229989,9 C22.229989,10.6542 23.5857497,12 25.252193,12 Z M25.252193,8 C25.8076741,8 26.2595943,8.4486 26.2595943,9 C26.2595943,9.5514 25.8076741,10 25.252193,10 C24.6967119,10 24.2447917,9.5514 24.2447917,9 C24.2447917,8.4486 24.6967119,8 25.252193,8 Z" id="Shape"></path>
                </g>
            </g>
        </g>
    </g>
</svg>