<?xml version="1.0" encoding="UTF-8"?>
<svg width="33px" height="35px" viewBox="0 0 33 35" version="1.1" xmlns="http://www.w3.org/2000/svg" xmlns:xlink="http://www.w3.org/1999/xlink">
    <!-- Generator: Sketch 63.1 (92452) - https://sketch.com -->
    <title>basketball-player</title>
    <desc>Created with Sketch.</desc>
    <g id="Page-2" stroke="none" stroke-width="1" fill="none" fill-rule="evenodd">
        <g id="DEMO-[基本設定E-01]-" transform="translate(-709.000000, -1194.000000)" fill="#000000" fill-rule="nonzero">
            <g id="basketball-player" transform="translate(709.000000, 1194.000000)">
                <path d="M32.9396375,10.7438379 C32.6055125,9.08414063 30.9859688,7.99394531 29.2991188,8.33143555 L22.4298938,9.69746094 C22.5962,9.253125 22.6874312,8.77269531 22.6874312,8.27148438 C22.6874312,6.00988281 20.8369563,4.16992188 18.5624312,4.16992188 C16.2879062,4.16992188 14.4374312,6.00988281 14.4374312,8.27148438 C14.4374312,9.51637695 14.9988437,10.6327539 15.88235,11.3855273 L14.6692562,11.7874805 L11.854975,7.59007813 C11.6919687,7.34719727 11.4982312,7.13254883 11.2805687,6.94859375 C11.9594063,6.21735352 12.375,5.24111328 12.375,4.16992188 C12.375,1.91269531 10.541025,0 8.25,0 C5.9566375,0 4.125,1.91447266 4.125,4.16992188 C4.125,5.82011719 5.11066875,7.24479492 6.52691875,7.89509766 C6.031025,8.86245117 6.0655375,10.0458203 6.7071125,11.003125 L9.956925,15.8511035 C11.2434438,17.770293 13.6789125,18.6012695 15.8795313,17.8720117 L17.390725,17.3710742 C17.7841813,19.2515723 17.8486,21.2156738 17.5902375,23.1277539 L16.22115,22.7873926 C14.5682625,22.37375 12.88375,23.3732324 12.467125,25.0254785 C12.1678563,26.2180078 12.6157625,27.4244824 13.5141188,28.1552441 L11.6904563,29.3641113 C10.26795,30.306582 9.88370625,32.2146973 10.8324563,33.6304199 C11.7838188,35.0481934 13.707375,35.4225293 15.1224563,34.4832715 L21.2958625,30.3909375 L22.96965,30.8069727 C24.1274,31.0930566 25.3616688,30.7013574 26.132425,29.7467188 C26.8855813,28.8136816 27.024525,27.5184082 26.4862125,26.4463965 L23.8392,21.1825195 C23.87,19.3798145 23.7076813,17.5723242 23.35135,15.7880762 L30.5136563,14.3637402 C32.1860688,14.0308984 33.2745187,12.4070215 32.9396375,10.7438379 Z M18.5625,6.22070312 C19.6997625,6.22070312 20.625,7.14068359 20.625,8.27148438 C20.625,9.40228516 19.6997625,10.3222656 18.5625,10.3222656 C17.4252375,10.3222656 16.5,9.40228516 16.5,8.27148438 C16.5,7.14068359 17.4252375,6.22070312 18.5625,6.22070312 Z M6.1875,4.16992188 C6.1875,3.02121094 7.1319875,2.05078125 8.25,2.05078125 C9.3680125,2.05078125 10.3125,3.02121094 10.3125,4.16992188 C10.3125,5.30072266 9.3872625,6.22070312 8.25,6.22070312 C7.1127375,6.22070312 6.1875,5.30072266 6.1875,4.16992188 Z M14.468025,25.5231348 C14.6058,24.9765332 15.166525,24.6382227 15.7192062,24.776582 L17.1921063,25.1427148 C17.1296125,25.3807422 17.0621688,25.617334 16.9891563,25.8518066 L15.5027812,26.8371387 L15.218225,26.7663867 C14.66685,26.6294629 14.3304563,26.0712402 14.468025,25.5231348 Z M20.5722,28.1469043 C20.5002188,28.3616895 20.3561875,28.5491992 20.1667125,28.6747754 L13.9777688,32.7773633 C13.5042187,33.0916797 12.8634688,32.9622754 12.5484563,32.4927832 C12.2326188,32.0215137 12.3598063,31.3850195 12.8343188,31.0707031 L18.4327,27.3596777 C18.6233438,27.2332813 18.7664812,27.0471387 18.8390125,26.8307129 C19.971875,23.4528711 20.1510375,19.8406934 19.1340875,15.7953906 C18.9877875,15.2133105 18.374125,14.8834766 17.8075562,15.0713281 L15.2274375,15.9264355 C13.90675,16.3643457 12.4453312,15.865459 11.6732687,14.7137402 L8.42359375,9.86589844 C8.11215625,9.40112305 8.22745,8.763125 8.71220625,8.44197266 C9.183625,8.12731445 9.82265625,8.25610352 10.1394562,8.72819336 L13.3903,13.5767871 C13.64825,13.9615137 14.133075,14.1271484 14.57445,13.980791 C14.6170062,13.966709 19.2309562,12.4377832 19.2737875,12.4239746 C19.8454437,12.2394043 20.4505125,12.575459 20.5946125,13.149541 C21.2775063,15.8664844 22.9049563,21.1882617 20.5722,28.1469043 Z M23.474825,25.0437305 L24.6411,27.3630273 C24.8206063,27.7206152 24.7746125,28.1524414 24.5238813,28.462998 C24.2677875,28.7801855 23.8570063,28.9131445 23.4682938,28.8170996 L22.5925563,28.599375 C22.9737062,27.4314551 23.2678875,26.2433691 23.474825,25.0437305 Z M30.1087875,12.3528809 L22.8814437,13.7901367 L22.595375,12.6524316 C22.521675,12.3587598 22.4041125,12.080332 22.2505938,11.8244629 L29.7048125,10.3420898 C30.2662937,10.2299121 30.8051562,10.5898926 30.9172187,11.1463379 C31.0290063,11.7018262 30.6675875,12.2415918 30.1087875,12.3528809 Z" id="Shape"></path>
                <path d="M8.07241875,16.9247559 C7.7529375,16.4560156 7.1116375,16.3335156 6.64021875,16.65125 L0.45271875,20.8211719 C-0.01876875,21.1388379 -0.1419,21.7764258 0.17765,22.2452344 C0.4972,22.714043 1.1383625,22.8364746 1.60985,22.5187402 L7.79735,18.3488184 C8.2688375,18.0311523 8.39196875,17.3934961 8.07241875,16.9247559 Z" id="Path"></path>
                <path d="M12.1974188,18.9755371 C11.8779375,18.5067969 11.2366375,18.3842969 10.7652188,18.7020313 L4.57771875,22.8719531 C4.10623125,23.1896191 3.9831,23.8272754 4.30265,24.2960156 C4.6222,24.7647559 5.2633625,24.8872559 5.73485,24.5695215 L11.92235,20.3995996 C12.3938375,20.0819336 12.5169688,19.4442773 12.1974188,18.9755371 Z" id="Path"></path>
                <path d="M10.1393187,25.2027344 C9.82334375,24.7314648 9.183075,24.6041797 8.70925,24.918291 L2.52175,29.0198535 C2.04785625,29.3340332 1.919775,29.9706641 2.23568125,30.4417969 C2.55165625,30.9131348 3.19199375,31.0402148 3.66575,30.7262402 L9.85325,26.6246777 C10.3271437,26.310498 10.455225,25.6738672 10.1393187,25.2027344 Z" id="Path"></path>
            </g>
        </g>
    </g>
</svg>