<?xml version="1.0" encoding="UTF-8"?>
<svg width="35px" height="35px" viewBox="0 0 35 35" version="1.1" xmlns="http://www.w3.org/2000/svg" xmlns:xlink="http://www.w3.org/1999/xlink">
    <!-- Generator: Sketch 63.1 (92452) - https://sketch.com -->
    <title>stage</title>
    <desc>Created with Sketch.</desc>
    <g id="Page-2" stroke="none" stroke-width="1" fill="none" fill-rule="evenodd">
        <g id="DEMO-[基本設定E-01]-" transform="translate(-370.000000, -1191.000000)" fill="#000000" fill-rule="nonzero">
            <g id="基本情報設定" transform="translate(214.000000, 713.000000)">
                <g id="stage" transform="translate(156.000000, 478.000000)">
                    <path d="M33.332168,9.98306641 L34.0990918,9.21614258 C35.298457,8.01677734 35.298457,6.06518555 34.0990918,4.86582031 C33.7637207,4.53044922 33.3694238,4.28900391 32.9492871,4.14114258 L32.9492871,1.02539062 C32.9492871,0.459101562 32.4901855,0 31.9238965,0 C31.3576074,0 30.8985059,0.459101563 30.8985059,1.02539062 L30.8985059,4.14121094 C30.4783691,4.28900391 30.0840723,4.53044922 29.7487012,4.86588867 L29.6981836,4.91640625 C26.4524121,1.78041992 22.0658594,0 17.5,0 C12.9311328,0 8.54451172,1.78021484 5.30140625,4.91585938 L5.25136719,4.86582031 C4.91599609,4.53044922 4.52169922,4.28900391 4.1015625,4.14121094 L4.1015625,1.02539063 C4.1015625,0.459101563 3.64246094,0 3.07617188,0 C2.50988281,0 2.05078125,0.459101563 2.05078125,1.02539063 L2.05078125,4.14121094 C1.63064453,4.28900391 1.23634766,4.53044922 0.900976563,4.86588867 C-0.298388672,6.06525391 -0.298388672,8.0168457 0.900976563,9.21621094 L1.66803711,9.98327148 C0.575380859,12.2962793 0,14.8572949 0,17.4316406 L0,33.9746094 C0,34.5408984 0.459101563,35 1.02539062,35 L33.9746094,35 C34.5408984,35 35,34.5408984 35,33.9746094 C35,33.4418848 35,17.8530762 35,17.4316406 C35,14.8560645 34.4250977,12.2970312 33.332168,9.98306641 Z M24.6777344,26.796875 L24.6777344,23.7207031 C24.6777344,23.1544141 24.2186328,22.6953125 23.6523438,22.6953125 L11.3476562,22.6953125 C10.7813672,22.6953125 10.3222656,23.1544141 10.3222656,23.7207031 L10.3222656,26.796875 L6.15234375,26.796875 C6.15234375,26.796875 6.16,16.9754102 6.17367188,16.7477734 C6.37211914,16.7088086 6.55634766,16.611875 6.70140625,16.4668164 L12.5019043,10.6663184 C12.9021484,10.2660742 12.9022852,9.6165918 12.5019043,9.21621094 L11.2746484,7.98895508 C13.106748,6.79779297 15.2728516,6.15234375 17.5,6.15234375 C19.7250977,6.15234375 21.8909961,6.79799805 23.7247363,7.98950195 L22.4980273,9.21621094 C22.0977832,9.61645508 22.0976465,10.2659375 22.4980273,10.6663184 L28.2985254,16.4668164 C28.4436523,16.6119434 28.6278125,16.708877 28.8262598,16.7477734 C28.8399316,16.9753418 28.8476562,17.2035254 28.8476562,17.4316406 L28.8476562,26.796875 L24.6777344,26.796875 Z M12.3730469,26.796875 L12.3730469,24.7460938 L22.6269531,24.7460938 L22.6269531,26.796875 L12.3730469,26.796875 Z M2.05078125,26.796875 L2.05078125,22.6953125 L4.1015625,22.6953125 L4.1015625,26.796875 L2.05078125,26.796875 Z M2.35108398,6.31599609 C2.75084961,5.91623047 3.40142578,5.91616211 3.80125977,6.31599609 L5.97638672,8.49119141 L4.5262793,9.94129883 L2.35108398,7.76610352 C1.95131836,7.36626953 1.95131836,6.71576172 2.35108398,6.31599609 Z M9.60168945,9.21621094 L10.326709,9.94129883 L5.97631836,14.2916211 L5.25136719,13.5665332 C4.85071289,13.1658789 4.85057617,12.5172168 5.25136719,12.1164258 L8.15158203,9.21614258 C8.55134766,8.81637695 9.20185547,8.81637695 9.60168945,9.21621094 L9.60168945,9.21621094 Z M3.80119141,15.0166406 L4.24744141,15.4628906 C4.15098633,16.1125098 4.1015625,16.7723145 4.1015625,17.4316406 L4.1015625,20.6445312 L2.05078125,20.6445312 L2.05078125,17.4316406 C2.05078125,15.6051465 2.36208984,13.8409961 2.97561523,12.1641406 C2.74920898,13.1762012 3.03447266,14.2499219 3.80119141,15.0166406 L3.80119141,15.0166406 Z M32.6488477,6.31592773 C33.0486816,6.71576172 33.0486816,7.36626953 32.6488477,7.76603516 C31.9771484,8.43773437 31.1450098,9.26987305 30.4736523,9.94123047 L29.0235449,8.49112305 L31.1986719,6.31592773 C31.5985742,5.91616211 32.249082,5.91616211 32.6488477,6.31592773 Z M32.9492188,20.6445312 L30.8984375,20.6445312 L30.8984375,17.4316406 C30.8984375,16.7723145 30.8490137,16.1124414 30.7525586,15.4628906 L31.1987402,15.0166406 C31.9519922,14.263457 32.2462793,13.2067578 32.0316309,12.1962695 C32.6342187,13.8666992 32.9492188,15.6441797 32.9492188,17.4316406 L32.9492188,20.6445312 Z M26.848418,9.21621094 L29.7486328,12.1164941 C29.9422949,12.3101562 30.0489355,12.567666 30.0489355,12.8415137 C30.0489355,13.1153613 29.9422949,13.3728711 29.7485645,13.5666016 L29.0235449,14.2916211 L24.6731543,9.94129883 L25.3981738,9.21621094 C25.7980762,8.81644531 26.448584,8.81644531 26.848418,9.21621094 L26.848418,9.21621094 Z M30.8984375,22.6953125 L32.9492188,22.6953125 L32.9492188,26.796875 L30.8984375,26.796875 L30.8984375,22.6953125 Z M17.5,2.05078125 C21.5220605,2.05078125 25.3852539,3.6134082 28.2478711,6.36658203 L27.44875,7.16570312 C26.9071387,6.90771484 26.3054395,6.81700195 25.7213086,6.89335938 C23.3862207,5.08983398 20.487168,4.1015625 17.5,4.1015625 C14.5100293,4.1015625 11.6108398,5.08983398 9.27814453,6.89335938 C8.69421875,6.81713867 8.09272461,6.90785156 7.55131836,7.16577148 L6.75171875,6.36617188 C9.61166992,3.61327148 13.475,2.05078125 17.5,2.05078125 Z M32.9492188,32.9492188 L2.05078125,32.9492188 L2.05078125,28.8476562 L32.9492188,28.8476562 L32.9492188,32.9492188 Z" id="Shape"></path>
                    <path d="M29.0357349,30 L25.3458213,30 C24.2236311,30 23.1775216,30.130719 22.340634,30.3529412 C21.5037464,30.130719 20.4576369,30 19.3354467,30 L15.6455331,30 C14.5233429,30 13.4772334,30.130719 12.6403458,30.3529412 C11.8034582,30.130719 10.7573487,30 9.6351585,30 L5.94524496,30 C3.22536023,30 1,30.7647059 1,31.6993464 L1,33.3333333 C1,33.6993464 1.87492795,34 2.94005764,34 L32.0599424,34 C33.125072,34 34,33.6993464 34,33.3333333 L34,31.6993464 C34,30.7647059 31.7746398,30 29.0357349,30 L29.0357349,30 Z M4,32.2745098 C4,32.122549 4.49019608,32 5.09803922,32 L8.90196078,32 C9.50980392,32 10,32.122549 10,32.2745098 L10,33 L4,33 L4,32.2745098 Z M14,32.2745098 C14,32.122549 14.4901961,32 15.0980392,32 L18.9019608,32 C19.5098039,32 20,32.122549 20,32.2745098 L20,33 L14,33 L14,32.2745098 Z M29,33 L23,33 L23,32.2745098 C23,32.122549 23.4901961,32 24.0980392,32 L27.9019608,32 C28.5098039,32 29,32.122549 29,32.2745098 L29,33 Z" id="Shape"></path>
                </g>
            </g>
        </g>
    </g>
</svg>