<?xml version="1.0" encoding="UTF-8" standalone="no"?>
<svg
   xmlns:dc="http://purl.org/dc/elements/1.1/"
   xmlns:cc="http://creativecommons.org/ns#"
   xmlns:rdf="http://www.w3.org/1999/02/22-rdf-syntax-ns#"
   xmlns:svg="http://www.w3.org/2000/svg"
   xmlns="http://www.w3.org/2000/svg"
   xmlns:sodipodi="http://sodipodi.sourceforge.net/DTD/sodipodi-0.dtd"
   xmlns:inkscape="http://www.inkscape.org/namespaces/inkscape"
   viewBox="1618 1338 28 14"
   id="svg2"
   version="1.1"
   inkscape:version="0.91 r13725"
   sodipodi:docname="icon_prereserve.svg">
  <metadata
     id="metadata15">
    <rdf:RDF>
      <cc:Work
         rdf:about="">
        <dc:format>image/svg+xml</dc:format>
        <dc:type
           rdf:resource="http://purl.org/dc/dcmitype/StillImage" />
      </cc:Work>
    </rdf:RDF>
  </metadata>
  <sodipodi:namedview
     pagecolor="#ffffff"
     bordercolor="#666666"
     borderopacity="1"
     objecttolerance="10"
     gridtolerance="10"
     guidetolerance="10"
     inkscape:pageopacity="0"
     inkscape:pageshadow="2"
     inkscape:window-width="1419"
     inkscape:window-height="852"
     id="namedview13"
     showgrid="false"
     inkscape:snap-text-baseline="false"
     inkscape:snap-grids="true"
     inkscape:zoom="28.976004"
     inkscape:cx="14.83383"
     inkscape:cy="7"
     inkscape:window-x="3"
     inkscape:window-y="0"
     inkscape:window-maximized="0"
     inkscape:current-layer="svg2" />
  <defs
     id="defs4">
    <style
       id="style6">
      .cls-1 {
        fill: #ed4b44;
      }

      .cls-2 {
        fill: #fff;
        font-size: 8px;
        font-family: HiraginoSans-W6, Hiragino Sans;
        letter-spacing: 0.004em;
      }
    </style>
  </defs>
  <g
     id="先行"
     transform="translate(1489 187)">
    <path
       id="パス_242"
       data-name="パス 242"
       class="cls-1"
       d="M30,4.9c0-1-1.4-1-1.4-2.1S30,1.8,30,.7h0c0-.4-.6-.7-1.2-.7H3A.945.945,0,0,0,2,1V13a.945.945,0,0,0,1,1H28.8c.7,0,1.2-.3,1.2-.7h0c0-1-1.4-1-1.4-2.1s1.4-1,1.4-2.1c0-1-1.4-1-1.4-2.1C28.6,6,30,6,30,4.9Z"
       transform="translate(127 1151)" />
    <text
       id="先行-2"
       data-name="先行"
       class="cls-2"
       transform="translate(132,1154)"
       style="font-size:8px;font-family:Arial, HiraginoSans-W6, 'Hiragino Sans';letter-spacing:0.004em;fill:#ffffff">
      <tspan
         x="2.484"
         y="7"
         id="tspan11">預售</tspan>
    </text>
  </g>
</svg>
