<?xml version="1.0" encoding="UTF-8" standalone="no"?>
<svg
   xmlns:dc="http://purl.org/dc/elements/1.1/"
   xmlns:cc="http://creativecommons.org/ns#"
   xmlns:rdf="http://www.w3.org/1999/02/22-rdf-syntax-ns#"
   xmlns:svg="http://www.w3.org/2000/svg"
   xmlns="http://www.w3.org/2000/svg"
   xmlns:sodipodi="http://sodipodi.sourceforge.net/DTD/sodipodi-0.dtd"
   xmlns:inkscape="http://www.inkscape.org/namespaces/inkscape"
   viewBox="1737 168 100 28"
   id="svg2"
   version="1.1"
   inkscape:version="0.91 r13725"
   sodipodi:docname="icon_line3.svg">
  <metadata
     id="metadata22">
    <rdf:RDF>
      <cc:Work
         rdf:about="">
        <dc:format>image/svg+xml</dc:format>
        <dc:type
           rdf:resource="http://purl.org/dc/dcmitype/StillImage" />
      </cc:Work>
    </rdf:RDF>
  </metadata>
  <sodipodi:namedview
     pagecolor="#ffffff"
     bordercolor="#666666"
     borderopacity="1"
     objecttolerance="10"
     gridtolerance="10"
     guidetolerance="10"
     inkscape:pageopacity="0"
     inkscape:pageshadow="2"
     inkscape:window-width="1287"
     inkscape:window-height="749"
     id="namedview20"
     showgrid="false"
     inkscape:zoom="6.18"
     inkscape:cx="67.851449"
     inkscape:cy="14"
     inkscape:window-x="61"
     inkscape:window-y="38"
     inkscape:window-maximized="0"
     inkscape:current-layer="svg2" />
  <defs
     id="defs4">
    <style
       id="style6">
      .cls-1 {
        fill: #41ce41;
      }

      .cls-2 {
        fill: #00b900;
      }

      .cls-3, .cls-4 {
        fill: #fff;
      }

      .cls-4 {
        font-size: 12px;
        font-family: HiraginoSans-W6, Hiragino Sans;
      }
    </style>
  </defs>
  <g
     id="share_line"
     transform="translate(1797 168)">
    <rect
       id="長方形_369"
       data-name="長方形 369"
       class="cls-1"
       width="100"
       height="28"
       rx="4"
       transform="translate(-60 0)" />
    <path
       id="パス_231"
       data-name="パス 231"
       class="cls-2"
       d="M22.955,0H5.1A5.1,5.1,0,0,0,0,5.064V22.9A5.1,5.1,0,0,0,5.064,28H22.9A5.1,5.1,0,0,0,28,22.936V5.1A5.07,5.07,0,0,0,22.955,0"
       transform="translate(-60 0)" />
    <g
       id="グループ化_81"
       data-name="グループ化 81"
       transform="translate(-52.403 9.723)">
      <path
         id="パス_232"
         data-name="パス 232"
         class="cls-3"
         d="M37.2,30.293c0-4.017-4.034-7.293-9-7.293s-9,3.276-9,7.293c0,3.6,3.207,6.638,7.517,7.207.293.069.69.19.793.448a2.141,2.141,0,0,1,.034.81s-.1.638-.121.776c-.034.224-.172.9.776.483a28.913,28.913,0,0,0,7.069-5.224h0a6.549,6.549,0,0,0,1.931-4.5"
         transform="translate(-21.797 -27.723)" />
      <path
         id="パス_233"
         data-name="パス 233"
         class="cls-2"
         d="M56.91,54.1h-.638a.173.173,0,0,0-.172.172v3.914a.173.173,0,0,0,.172.172h.638a.173.173,0,0,0,.172-.172V54.272a.163.163,0,0,0-.172-.172"
         transform="translate(-52.335 -53.461)" />
      <path
         id="パス_234"
         data-name="パス 234"
         class="cls-2"
         d="M68.786,54.1h-.638a.173.173,0,0,0-.172.172V56.6l-1.793-2.431-.017-.017h0l-.017-.017h-.776a.173.173,0,0,0-.172.172v3.914a.173.173,0,0,0,.172.172h.638a.173.173,0,0,0,.172-.172V55.859l1.793,2.431.052.052h.759a.173.173,0,0,0,.172-.172v-3.9a.163.163,0,0,0-.172-.172"
         transform="translate(-59.866 -53.461)" />
      <path
         id="パス_235"
         data-name="パス 235"
         class="cls-2"
         d="M39.007,57.376H37.283v-3.1a.173.173,0,0,0-.172-.172h-.638a.173.173,0,0,0-.172.172v3.914h0a.156.156,0,0,0,.052.121h0a.156.156,0,0,0,.121.052h2.534a.173.173,0,0,0,.172-.172v-.638a.185.185,0,0,0-.172-.172"
         transform="translate(-35.949 -53.461)" />
      <path
         id="パス_236"
         data-name="パス 236"
         class="cls-2"
         d="M93.29,55.083a.173.173,0,0,0,.172-.172v-.638a.173.173,0,0,0-.172-.172H90.772a.157.157,0,0,0-.121.052h0a.157.157,0,0,0-.052.121h0v3.914h0a.156.156,0,0,0,.052.121h0a.157.157,0,0,0,.121.052H93.29a.173.173,0,0,0,.172-.172v-.638a.173.173,0,0,0-.172-.172H91.583v-.655H93.29a.173.173,0,0,0,.172-.172V55.91a.173.173,0,0,0-.172-.172H91.583v-.655Z"
         transform="translate(-80.887 -53.461)" />
    </g>
    <text
       id="送る"
       class="cls-4"
       style="font-size:12px;font-family:HiraginoSans-W6, 'Hiragino Sans';fill:#ffffff"
       x="-14.796117"
       y="18.643999">
      <tspan
         x="-14.796117"
         y="18.643999"
         id="tspan18">傳　送</tspan>
    </text>
  </g>
</svg>
