<?xml version="1.0" encoding="UTF-8" standalone="no"?>
<svg
   xmlns:dc="http://purl.org/dc/elements/1.1/"
   xmlns:cc="http://creativecommons.org/ns#"
   xmlns:rdf="http://www.w3.org/1999/02/22-rdf-syntax-ns#"
   xmlns:svg="http://www.w3.org/2000/svg"
   xmlns="http://www.w3.org/2000/svg"
   xmlns:sodipodi="http://sodipodi.sourceforge.net/DTD/sodipodi-0.dtd"
   xmlns:inkscape="http://www.inkscape.org/namespaces/inkscape"
   viewBox="1517 168 100 28.169"
   id="svg2"
   version="1.1"
   inkscape:version="0.91 r13725"
   sodipodi:docname="icon_facebook3.svg">
  <metadata
     id="metadata17">
    <rdf:RDF>
      <cc:Work
         rdf:about="">
        <dc:format>image/svg+xml</dc:format>
        <dc:type
           rdf:resource="http://purl.org/dc/dcmitype/StillImage" />
      </cc:Work>
    </rdf:RDF>
  </metadata>
  <sodipodi:namedview
     pagecolor="#ffffff"
     bordercolor="#666666"
     borderopacity="1"
     objecttolerance="10"
     gridtolerance="10"
     guidetolerance="10"
     inkscape:pageopacity="0"
     inkscape:pageshadow="2"
     inkscape:window-width="1288"
     inkscape:window-height="827"
     id="namedview15"
     showgrid="false"
     inkscape:zoom="5.3453116"
     inkscape:cx="45.053533"
     inkscape:cy="14.0845"
     inkscape:window-x="0"
     inkscape:window-y="0"
     inkscape:window-maximized="0"
     inkscape:current-layer="svg2" />
  <defs
     id="defs4">
    <style
       id="style6">
      .cls-1 {
        fill: #5e76a5;
      }

      .cls-2 {
        fill: #4e69a1;
      }

      .cls-3, .cls-4 {
        fill: #fff;
      }

      .cls-4 {
        font-size: 12px;
        font-family: HiraginoSans-W6, Hiragino Sans;
      }
    </style>
  </defs>
  <g
     id="share_fb"
     transform="translate(1577 168)">
    <rect
       id="長方形_367"
       data-name="長方形 367"
       class="cls-1"
       width="100"
       height="28"
       rx="4"
       transform="translate(-60 0)" />
    <path
       id="パス_226"
       data-name="パス 226"
       class="cls-2"
       d="M22.955,0H5.1A5.1,5.1,0,0,0,0,5.064V22.9A5.1,5.1,0,0,0,5.064,28H22.9A5.1,5.1,0,0,0,28,22.936V5.1A5.07,5.07,0,0,0,22.955,0"
       transform="translate(-60 0)" />
    <path
       id="パス_227"
       data-name="パス 227"
       class="cls-3"
       d="M45.305,17.119H47.3v-3.38a24.887,24.887,0,0,0-2.909-.139c-2.882,0-4.849,1.746-4.849,4.987v2.771H36.3v3.768h3.242v9.642h3.879V25.1h3.242l.5-3.768H43.449V18.92C43.449,17.867,43.753,17.119,45.305,17.119Z"
       transform="translate(-84.233 -6.6)" />
    <text
       id="シェア"
       class="cls-4"
       style="font-size:12px;font-family:HiraginoSans-W6, 'Hiragino Sans';fill:#ffffff"
       x="-14"
       y="18.625999">
      <tspan
         x="-14"
         y="18.625999"
         id="tspan13">分　享</tspan>
    </text>
  </g>
</svg>
