<svg xmlns="http://www.w3.org/2000/svg" width="40" height="40" viewBox="0 0 40 40">
  <style>
    .st0{fill:none;} .st1{fill:#919496;}
  </style>
  <path class="st0" d="M0 0h40v40H0z"/>
  <g>
    <path class="st1" d="M32.6 12c.8 0 1.4.6 1.4 1.4V15H6v-1.6c0-.8.6-1.4 1.4-1.4h25.2m0-2H7.4C5.5 10 4 11.5 4 13.4V17h32v-3.6c0-1.9-1.5-3.4-3.4-3.4z"/>
    <path class="st1" d="M10.5 7c.6 0 1 .4 1 1v2h-2V8c0-.6.4-1 1-1m0-2c-1.7 0-3 1.3-3 3v4h6V8c0-1.7-1.3-3-3-3zm19 2c.6 0 1 .4 1 1v2h-2V8c0-.6.4-1 1-1m0-2c-1.7 0-3 1.3-3 3v4h6V8c0-1.7-1.3-3-3-3zM34 17v16H6V17h28m2-2H4v20h32V15z"/>
    <path class="st1" d="M9 20h4v4H9zm6 0h4v4h-4zm6 0h4v4h-4zm6 0h4v4h-4zM9 26h4v4H9zm6 0h4v4h-4zm6 0h4v4h-4zm6 0h4v4h-4z"/>
  </g>
</svg>