<svg xmlns="http://www.w3.org/2000/svg" width="40" height="40" viewBox="0 0 40 40">
  <style>
    .st0{fill:none;} .st1{fill:#919496;}
  </style>
  <path class="st0" d="M0 0h40v40H0z"/>
  <g>
    <path class="st1" d="M20 3c5.5 0 10 4.5 10 10 0 3.9-5.5 14.5-10 22.1-4.5-7.6-10-18.2-10-22.1 0-5.5 4.5-10 10-10m0-2C13.4 1 8 6.4 8 13s12 26 12 26 12-19.4 12-26S26.6 1 20 1z"/>
    <path class="st1" d="M20 9c2.2 0 4 1.8 4 4s-1.8 4-4 4-4-1.8-4-4 1.8-4 4-4m0-2c-3.3 0-6 2.7-6 6s2.7 6 6 6 6-2.7 6-6-2.7-6-6-6z"/>
  </g>
</svg>