<svg xmlns="http://www.w3.org/2000/svg" width="40" height="40" viewBox="0 0 40 40">
  <style>
    .st0{fill:none;} .st1{fill:#919496;}
  </style>
  <path class="st0" d="M0 0h40v40H0z"/>
  <g>
    <path class="st1" d="M21.2 21.9h-2.4l-7.1-9.2h3.7z"/>
    <path class="st1" d="M18.8 21.9h2.4l7.1-9.2h-3.7zm-.3 0h3v10.7h-3z"/>
    <path class="st1" d="M14 20.6h12v1.5H14zm0 5.3h12v1.5H14z"/>
    <path class="st1" d="M20 7.7c6.8 0 12.3 5.5 12.3 12.3S26.8 32.3 20 32.3 7.7 26.8 7.7 20 13.2 7.7 20 7.7m0-1c-7.4 0-13.3 6-13.3 13.3s6 13.3 13.3 13.3 13.3-6 13.3-13.3S27.4 6.7 20 6.7z"/>
    <path class="st1" d="M20 3c9.4 0 17 7.6 17 17s-7.6 17-17 17S3 29.4 3 20 10.6 3 20 3m0-2C9.5 1 1 9.5 1 20s8.5 19 19 19 19-8.5 19-19S30.5 1 20 1z"/>
  </g>
</svg>