<!-- Generator: Adobe Illustrator 19.2.1, SVG Export Plug-In  -->
<svg version="1.1"
   xmlns="http://www.w3.org/2000/svg" xmlns:xlink="http://www.w3.org/1999/xlink" xmlns:a="http://ns.adobe.com/AdobeSVGViewerExtensions/3.0/"
   x="0px" y="0px" width="40px" height="40px" viewBox="0 0 40 40" style="enable-background:new 0 0 40 40;" xml:space="preserve">
<style type="text/css">
  .st0{fill:none;}
  .st1{fill:#919496;}
</style>
<defs>
</defs>
<rect class="st0" width="40" height="40"/>
<g>
  <path class="st1" d="M29,2.1c1,0,1.8,0.8,1.8,1.8v32.1c0,1-0.8,1.8-1.8,1.8H11c-1,0-1.8-0.8-1.8-1.8V3.9c0-1,0.8-1.8,1.8-1.8H29
     M29,0.1H11c-2.1,0-3.8,1.7-3.8,3.8v32.1c0,2.1,1.7,3.8,3.8,3.8h18c2.1,0,3.8-1.7,3.8-3.8V3.9C32.9,1.8,31.1,0.1,29,0.1L29,0.1z"/>
  <path class="st1" d="M26.2,8.6v17.7H13.8V8.6H26.2 M28.2,6.6H11.8v21.7h16.4V6.6L28.2,6.6z"/>
  <path class="st1" d="M20,32.6c0.2,0,0.3,0.1,0.3,0.3s-0.1,0.3-0.3,0.3s-0.3-0.1-0.3-0.3S19.8,32.6,20,32.6 M20,30.6
    c-1.3,0-2.3,1-2.3,2.3s1,2.3,2.3,2.3s2.3-1,2.3-2.3S21.3,30.6,20,30.6L20,30.6z"/>
</g>
</svg>
