<svg xmlns="http://www.w3.org/2000/svg" width="90" height="90" viewBox="0 0 90 90">
  <style>
    .st0{fill:none;} .st1{fill:#FFFFFF;}
  </style>
  <path class="st0" d="M0 0h90v90H0z"/>
  <path class="st1" d="M70.9 45.1L48 31.9l22.9-13.2c.5-.3.6-.9.4-1.4l-.5-.9c-.3-.5-.9-.6-1.4-.4L45 30.1l-24.4-14c-.5-.3-1.1-.1-1.4.4l-.5.9c-.3.5-.1 1.1.4 1.4L42 31.9 19.1 45.1c-.5.3-.6.9-.4 1.4l.5.9c.3.5.9.6 1.4.4L45 33.6l24.4 14.1c.5.3 1.1.1 1.4-.4l.5-.9c.2-.5 0-1.1-.4-1.3zM27.2 61.2c1.1 0 2 .3 2.6.6l.4-1.3c-.4-.2-1.4-.6-3-.6-4 0-6.8 2.8-6.8 7.2 0 4.6 2.8 6.9 6.4 6.9 1.6 0 2.8-.3 3.4-.6l-.3-1.2c-.7.3-1.7.6-2.8.6-3.2 0-5.1-2.1-5.1-5.7-.1-3.8 2-5.9 5.2-5.9zm6.9-1.7h1.5v14.4h-1.5zm10.1 4.3c-2.5 0-4.6 1.9-4.6 5.2 0 3.2 1.9 5.1 4.5 5.1 2.2 0 4.6-1.5 4.6-5.2 0-3-1.8-5.1-4.5-5.1zm-.1 9.1c-1.8 0-3-1.8-3-3.9 0-1.9.9-4 3-4s3 2.2 3 3.9c0 2.2-1.2 4-3 4zm11.5-4.7c-1.3-.5-1.8-.9-1.8-1.8 0-.8.6-1.5 1.7-1.5.9 0 1.5.3 1.9.6l.4-1.1c-.5-.3-1.3-.6-2.3-.6-2 0-3.2 1.3-3.2 2.8 0 1.2.8 2.1 2.5 2.8 1.3.5 1.8 1 1.8 1.9 0 .9-.6 1.6-2 1.6-.8 0-1.7-.4-2.2-.7l-.4 1.2c.7.4 1.6.7 2.6.7 2.1 0 3.5-1.2 3.5-2.9 0-1.5-.9-2.3-2.5-3zm10.2-4.4c-2.6 0-4.4 2.2-4.4 5.3 0 2.9 1.7 5 4.6 5 1.5 0 2.5-.3 3.1-.6l-.3-1.1c-.6.3-1.4.5-2.6.5-1.8 0-3.3-1-3.3-3.7h6.7v-.8c0-1.8-.7-4.6-3.8-4.6zM63 68c.1-1.4.9-3.1 2.7-3.1 1.9 0 2.5 1.7 2.5 3.1H63z"/>
</svg>