<svg xmlns="http://www.w3.org/2000/svg" width="47.4" height="34" viewBox="0 0 47.4 34">
  <style>
    .st0{fill:#1C1C1C;}
  </style>
  <path class="st0" d="M40.1 22.7c.4 0 .8-.3.9-.6l6.3-16.6c.1-.3.1-.7-.1-.9s-.5-.4-.8-.4H10.3L8.9.6C8.8.3 8.4 0 8 0H1C.4 0 0 .4 0 1s.4 1 1 1h6.3l9.4 24.7c-1 .7-1.7 1.9-1.7 3.3 0 2.2 1.8 4 4 4 1.9 0 3.4-1.3 3.9-3h12.3c.4 1.7 2 3 3.9 3 2.2 0 4-1.8 4-4s-1.8-4-4-4c-1.9 0-3.4 1.3-3.9 3H22.9c-.4-1.7-2-3-3.9-3h-.4l-1.3-3.3h22.8zM45 6.1l-5.5 14.6h-23L11 6.1h34zM19 32c-1.1 0-2-.9-2-2 0-.5.2-.9.5-1.3l.6 1.6c.1.4.5.6.9.6h1.7c-.3.7-1 1.1-1.7 1.1zm20-4c1.1 0 2 .9 2 2s-.9 2-2 2c-.7 0-1.4-.4-1.7-1H39c.6 0 1-.4 1-1s-.4-1-1-1h-1.7c.3-.6 1-1 1.7-1zm-18.3 1h-1l-.4-1c.6.1 1.1.5 1.4 1z"/>
</svg>