<?xml version="1.0" encoding="UTF-8"?>
<svg width="38px" height="36px" viewBox="0 0 38 36" version="1.1" xmlns="http://www.w3.org/2000/svg" xmlns:xlink="http://www.w3.org/1999/xlink">
    <!-- Generator: Sketch 63.1 (92452) - https://sketch.com -->
    <title>i-ordersetting</title>
    <desc>Created with Sketch.</desc>
    <g id="i-ordersetting" stroke="none" stroke-width="1" fill="none" fill-rule="evenodd">
        <g id="Group-19" transform="translate(1.000000, 1.000000)">
            <path d="M4.4798,30.3244 C2.0208,30.3244 0.0098,28.3124 0.0098,25.8544 L0.0098,4.4794 C0.0098,2.0214 2.0208,0.0104 4.4798,0.0104 L25.3038,0.0104 C27.7628,0.0104 29.7738,2.0214 29.7738,4.4794" id="Stroke-3" stroke="#7ED1E8" stroke-width="2.5"></path>
            <path d="M31.3136,33.9416 L10.4886,33.9416 C8.0306,33.9416 6.0196,32.0168128 6.0196,29.665358 L6.0196,9.21688535 C6.0196,6.86543057 8.0306,4.9416 10.4886,4.9416 L31.3136,4.9416 C33.7716,4.9416 35.7836,6.86543057 35.7836,9.21688535 L35.7836,29.665358 C35.7836,32.0168128 33.7716,33.9416 31.3136,33.9416 Z" id="Stroke-7" stroke="#7ED1E8" stroke-width="2.5"></path>
            <path d="M13.4484,13.1779 C11.9394,12.6849 11.6844,12.4289 11.6844,12.0419 C11.6844,11.6869 12.0164,11.3069 12.9504,11.3069 C13.9304,11.3069 14.5474,11.5859 14.8114,11.7039 C14.9414,11.7629 15.0974,11.7739 15.2384,11.7339 C15.3804,11.6939 15.4914,11.6069 15.5454,11.4959 L15.9644,10.6219 C16.0534,10.4369 15.9614,10.2299 15.7444,10.1299 C15.1684,9.8629 14.5364,9.7019 13.8164,9.6379 L13.8164,8.7299 C13.8164,8.5069 13.5854,8.3249 13.3024,8.3249 L12.2624,8.3249 C11.9794,8.3249 11.7494,8.5069 11.7494,8.7299 L11.7494,9.7409 C10.1844,10.0679 9.2144,11.0069 9.2144,12.2009 C9.2144,12.8659 9.5094,13.4129 10.1154,13.8719 C10.5984,14.2389 11.2944,14.5549 12.3044,14.8679 C13.6904,15.3109 13.8804,15.7069 13.8804,16.0689 C13.8804,16.6029 13.2844,16.9619 12.3964,16.9619 C11.6474,16.9619 10.8694,16.7799 10.2634,16.4609 C10.1324,16.3909 9.9694,16.3739 9.8184,16.4129 C9.6674,16.4519 9.5504,16.5429 9.4964,16.6609 L9.0934,17.5489 C9.0164,17.7179 9.0924,17.9089 9.2784,18.0139 C9.8514,18.3369 10.7264,18.5729 11.6314,18.6479 L11.6314,19.6059 C11.6314,19.8289 11.8624,20.0109 12.1444,20.0109 L13.2024,20.0109 C13.4854,20.0109 13.7154,19.8289 13.7154,19.6059 L13.7154,18.5539 C15.3284,18.2129 16.3674,17.2059 16.3674,15.9759 C16.3674,15.2939 16.1124,14.7339 15.5864,14.2629 C15.1154,13.8399 14.4354,13.4949 13.4484,13.1779" id="Fill-9" fill="#81D1EC"></path>
            <polygon id="Fill-13" fill="#7CCFEC" points="19.818 12.5475 28.492 12.5475 28.492 10.6625 19.818 10.6625"></polygon>
            <polygon id="Fill-15" fill="#7CCFEC" points="23.67 16.2445 32.344 16.2445 32.344 14.3605 23.67 14.3605"></polygon>
            <polygon id="Fill-16" fill="#7CCFEC" points="19.816 19.6715 28.49 19.6715 28.49 17.7865 19.816 17.7865"></polygon>
            <polygon id="Fill-17" fill="#7CCFEC" points="9.593 25.6335 32.209 25.6335 32.209 23.5775 9.593 23.5775"></polygon>
            <polygon id="Fill-18" fill="#7CCFEC" points="9.593 30.6065 32.209 30.6065 32.209 28.5495 9.593 28.5495"></polygon>
        </g>
    </g>
</svg>