<?xml version="1.0" encoding="UTF-8"?>
<svg width="36px" height="36px" viewBox="0 0 36 36" version="1.1" xmlns="http://www.w3.org/2000/svg" xmlns:xlink="http://www.w3.org/1999/xlink">
    <!-- Generator: Sketch 63.1 (92452) - https://sketch.com -->
    <title>calendar</title>
    <desc>Created with Sketch.</desc>
    <g id="Page-2" stroke="none" stroke-width="1" fill="none" fill-rule="evenodd">
        <g id="DEMO-[基本設定E-01]-" transform="translate(-111.000000, -306.000000)" fill="#7CCFEC" fill-rule="nonzero">
            <g id="ＩＣＯＮ" transform="translate(93.000000, 187.000000)">
                <g id="calendar" transform="translate(18.000000, 119.000000)">
                    <path d="M19.6171875,25.59375 C19.6171875,27.1445625 20.878875,28.40625 22.4296875,28.40625 L25.734375,28.40625 C27.2851875,28.40625 28.546875,27.1445625 28.546875,25.59375 L28.546875,22.2890625 C28.546875,20.73825 27.2851875,19.4765625 25.734375,19.4765625 L22.4296875,19.4765625 C20.878875,19.4765625 19.6171875,20.73825 19.6171875,22.2890625 L19.6171875,25.59375 Z M22.4296875,22.2890625 L25.734375,22.2890625 L25.7361328,25.5936797 C25.7361328,25.5936797 25.7356406,25.59375 25.734375,25.59375 L22.4296875,25.59375 L22.4296875,22.2890625 Z" id="Shape"></path>
                    <circle id="Oval" cx="27.140625" cy="14.765625" r="1.40625"></circle>
                    <circle id="Oval" cx="21.0234375" cy="14.765625" r="1.40625"></circle>
                    <path d="M34.59375,24.75 C35.3704219,24.75 36,24.1204219 36,23.34375 L36,8.4375 C36,5.335875 33.476625,2.8125 30.375,2.8125 L28.546875,2.8125 L28.546875,1.40625 C28.546875,0.629578125 27.9172969,0 27.140625,0 C26.3639531,0 25.734375,0.629578125 25.734375,1.40625 L25.734375,2.8125 L19.3359375,2.8125 L19.3359375,1.40625 C19.3359375,0.629578125 18.7063594,0 17.9296875,0 C17.1530156,0 16.5234375,0.629578125 16.5234375,1.40625 L16.5234375,2.8125 L10.1953125,2.8125 L10.1953125,1.40625 C10.1953125,0.629578125 9.56573437,0 8.7890625,0 C8.01239063,0 7.3828125,0.629578125 7.3828125,1.40625 L7.3828125,2.8125 L5.625,2.8125 C2.523375,2.8125 0,5.335875 0,8.4375 L0,30.375 C0,33.476625 2.523375,36 5.625,36 L30.375,36 C33.476625,36 36,33.476625 36,30.375 C36,29.5983281 35.3704219,28.96875 34.59375,28.96875 C33.8170781,28.96875 33.1875,29.5983281 33.1875,30.375 C33.1875,31.9258125 31.9258125,33.1875 30.375,33.1875 L5.625,33.1875 C4.0741875,33.1875 2.8125,31.9258125 2.8125,30.375 L2.8125,8.4375 C2.8125,6.8866875 4.0741875,5.625 5.625,5.625 L7.3828125,5.625 L7.3828125,7.03125 C7.3828125,7.80792187 8.01239063,8.4375 8.7890625,8.4375 C9.56573437,8.4375 10.1953125,7.80792187 10.1953125,7.03125 L10.1953125,5.625 L16.5234375,5.625 L16.5234375,7.03125 C16.5234375,7.80792187 17.1530156,8.4375 17.9296875,8.4375 C18.7063594,8.4375 19.3359375,7.80792187 19.3359375,7.03125 L19.3359375,5.625 L25.734375,5.625 L25.734375,7.03125 C25.734375,7.80792187 26.3639531,8.4375 27.140625,8.4375 C27.9172969,8.4375 28.546875,7.80792187 28.546875,7.03125 L28.546875,5.625 L30.375,5.625 C31.9258125,5.625 33.1875,6.8866875 33.1875,8.4375 L33.1875,23.34375 C33.1875,24.1204219 33.8170781,24.75 34.59375,24.75 Z" id="Path"></path>
                    <circle id="Oval" cx="8.7890625" cy="27" r="1.40625"></circle>
                    <circle id="Oval" cx="8.7890625" cy="14.765625" r="1.40625"></circle>
                    <circle id="Oval" cx="8.7890625" cy="20.8828125" r="1.40625"></circle>
                    <circle id="Oval" cx="14.90625" cy="20.8828125" r="1.40625"></circle>
                    <circle id="Oval" cx="14.90625" cy="14.765625" r="1.40625"></circle>
                    <circle id="Oval" cx="14.90625" cy="27" r="1.40625"></circle>
                </g>
            </g>
        </g>
    </g>
</svg>