<?xml version="1.0" encoding="UTF-8"?>
<svg width="42px" height="30px" viewBox="0 0 42 30" version="1.1" xmlns="http://www.w3.org/2000/svg" xmlns:xlink="http://www.w3.org/1999/xlink">
    <!-- Generator: Sketch 63.1 (92452) - https://sketch.com -->
    <title>icon_seat</title>
    <desc>Created with Sketch.</desc>
    <g id="Page-1" stroke="none" stroke-width="1" fill="none" fill-rule="evenodd">
        <g id="icon_seat" transform="translate(1.000000, 1.000000)" fill="#7CCFEC" fill-rule="nonzero" stroke="#7CCFEC" stroke-width="0.5">
            <path d="M35.3125,3.55773926 C35.3125,1.59604136 33.7353516,0 31.796875,0 L24.6875,0 C22.7490234,0 21.171875,1.59604136 21.171875,3.55773926 L21.171875,9.48730469 L18.828125,9.48730469 L18.828125,3.55773926 C18.828125,1.59604136 17.2509766,0 15.3125,0 L8.203125,0 C6.26464844,0 4.6875,1.59604136 4.6875,3.55773926 L4.6875,9.48730469 L1,9.48730469 C0.44771525,9.48730469 9.13419418e-16,9.93501994 0,10.4873047 L0,15.4168701 L0,15.4168701 C0,16.9628808 0.979614219,18.2809737 2.34375,18.7707806 L2.34375,20.1605225 C2.34375,21.7065332 3.32336422,23.0246261 4.6875,23.5144329 L4.6875,27.4619141 C4.6875,28.0141988 5.13521525,28.4619141 5.6875,28.4619141 L6.03125,28.4619141 C6.58353475,28.4619141 7.03125,28.0141988 7.03125,27.4619141 L7.03125,23.7182617 L7.03125,23.7182617 L16.484375,23.7182617 L16.484375,27.4619141 C16.484375,28.0141988 16.9320903,28.4619141 17.484375,28.4619141 L17.828125,28.4619141 C18.3804097,28.4619141 18.828125,28.0141988 18.828125,27.4619141 L18.828125,23.5141241 L18.828125,23.5141241 C19.2645264,23.3575465 19.6618652,23.1169667 20,22.810297 C20.3381348,23.1169667 20.7354736,23.3575465 21.171875,23.5141241 L21.171875,27.4619141 C21.171875,28.0141988 21.6195903,28.4619141 22.171875,28.4619141 L22.515625,28.4619141 C23.0679097,28.4619141 23.515625,28.0141988 23.515625,27.4619141 L23.515625,23.7182617 L23.515625,23.7182617 L32.96875,23.7182617 L32.96875,27.4619141 C32.96875,28.0141988 33.4164653,28.4619141 33.96875,28.4619141 L34.3125,28.4619141 C34.8647847,28.4619141 35.3125,28.0141988 35.3125,27.4619141 L35.3125,23.5144329 L35.3125,23.5144329 C36.6766358,23.0246261 37.65625,21.7065332 37.65625,20.1605225 L37.65625,18.7707806 C39.0203858,18.2809737 40,16.9628808 40,15.4168701 L40,10.4873047 C40,9.93501994 39.5522847,9.48730469 39,9.48730469 L35.3125,9.48730469 L35.3125,9.48730469 L35.3125,3.55773926 Z M23.515625,3.55773926 C23.515625,2.90394292 24.0414429,2.37182617 24.6875,2.37182617 L31.796875,2.37182617 C32.4429321,2.37182617 32.96875,2.90394292 32.96875,3.55773926 L32.96875,14.230957 L23.515625,14.230957 C23.515625,11.9805016 23.515625,5.80819466 23.515625,3.55773926 Z M20,16.6027832 C19.3539429,16.6027832 18.828125,16.0706665 18.828125,15.4168701 L18.828125,11.8591309 L21.171875,11.8591309 L21.171875,15.4168701 C21.171875,16.0706665 20.6460571,16.6027832 20,16.6027832 Z M7.03125,3.55773926 C7.03125,2.90394292 7.55706789,2.37182617 8.203125,2.37182617 L15.3125,2.37182617 C15.9585571,2.37182617 16.484375,2.90394292 16.484375,3.55773926 L16.484375,14.230957 L7.03125,14.230957 C7.03125,11.9805016 7.03125,5.80819466 7.03125,3.55773926 Z M2.34375,11.8591309 L4.6875,11.8591309 L4.6875,15.4168701 C4.6875,16.0706665 4.16168211,16.6027832 3.515625,16.6027832 C2.86956789,16.6027832 2.34375,16.0706665 2.34375,15.4168701 L2.34375,11.8591309 Z M17.65625,21.3464355 L5.859375,21.3464355 C5.21331789,21.3464355 4.6875,20.8143188 4.6875,20.1605225 L4.6875,18.7707806 C5.68481445,18.4128448 6.47613523,17.6120447 6.82983398,16.6027832 L16.685791,16.6027832 C17.0394898,17.6120447 17.8308105,18.4128448 18.828125,18.7707806 L18.828125,20.1605225 C18.828125,20.8143188 18.3023071,21.3464355 17.65625,21.3464355 Z M34.140625,21.3464355 L22.34375,21.3464355 C21.6976929,21.3464355 21.171875,20.8143188 21.171875,20.1605225 L21.171875,18.7707806 C22.1691895,18.4128448 22.9605102,17.6120447 23.314209,16.6027832 L33.170166,16.6027832 C33.5238648,17.6120447 34.3151855,18.4128448 35.3125,18.7707806 L35.3125,20.1605225 C35.3125,20.8143188 34.7866821,21.3464355 34.140625,21.3464355 Z M37.65625,15.4168701 C37.65625,16.0706665 37.1304321,16.6027832 36.484375,16.6027832 C35.8383179,16.6027832 35.3125,16.0706665 35.3125,15.4168701 L35.3125,11.8591309 L37.65625,11.8591309 L37.65625,15.4168701 Z" id="Shape"></path>
        </g>
    </g>
</svg>