<?xml version="1.0" encoding="UTF-8"?>
<svg width="38px" height="37px" viewBox="0 0 38 37" version="1.1" xmlns="http://www.w3.org/2000/svg" xmlns:xlink="http://www.w3.org/1999/xlink">
    <!-- Generator: Sketch 63.1 (92452) - https://sketch.com -->
    <title>icon_basc</title>
    <desc>Created with Sketch.</desc>
    <g id="Page-1" stroke="none" stroke-width="1" fill="none" fill-rule="evenodd">
        <g id="icon_basc" fill="#7CCFEC" fill-rule="nonzero">
            <path d="M6.921875,7.52455357 C6.921875,6.76169041 7.5513916,6.14341518 8.328125,6.14341518 C9.1048584,6.14341518 9.734375,6.76169041 9.734375,7.52455357 C9.734375,8.28741673 9.1048584,8.90569196 8.328125,8.90569196 C7.5513916,8.90569196 6.921875,8.28741673 6.921875,7.52455357 Z M11.84375,7.52455357 C11.84375,6.76169041 12.4732666,6.14341518 13.25,6.14341518 C14.0267334,6.14341518 14.65625,6.76169041 14.65625,7.52455357 C14.65625,8.28741673 14.0267334,8.90569196 13.25,8.90569196 C12.4732666,8.90569196 11.84375,8.28741673 11.84375,7.52455357 Z M20.421875,19.3542132 L7.765625,19.3542132 L7.765625,16.6042132 L20.421875,16.6042132 L20.421875,19.3542132 Z M36,14 L3,14 L3,11 L36,11 L36,14 Z M13.3859558,22 L26.0422058,22 L26.0422058,24.75 L13.3859558,24.75 L13.3859558,22 Z M7.76095583,27 L20.4172058,27 L20.4172058,29.75 L7.76095583,29.75 L7.76095583,27 Z" id="Shape"></path>
            <path d="M36.515625,23.9106638 C37.3354453,23.9106638 38,23.2298395 38,22.3899482 L38,6.27036252 C38,2.91627213 35.3364375,0.1875 32.0625,0.1875 L30.1328125,0.1875 L27.1640625,0.1875 L20.4101562,0.1875 L17.4414062,0.1875 L10.7617188,0.1875 L7.79296875,0.1875 L5.9375,0.1875 C2.6635625,0.1875 0,2.91627213 0,6.27036252 L0,29.9935264 C0,33.3476168 2.6635625,36.0763889 5.9375,36.0763889 L32.0625,36.0763889 C35.3364375,36.0763889 38,33.3476168 38,29.9935264 C38,29.1536351 37.3354453,28.4728107 36.515625,28.4728107 C35.6958047,28.4728107 35.03125,29.1536351 35.03125,29.9935264 C35.03125,31.6705716 33.6994688,33.0349576 32.0625,33.0349576 L5.9375,33.0349576 C4.30053125,33.0349576 2.96875,31.6705716 2.96875,29.9935264 L2.96875,6.27036252 C2.96875,4.59331733 4.30053125,3.22893126 5.9375,3.22893126 L7.79296875,3.22893126 L10.7617188,3.22893126 L17.4414062,3.22893126 L32.0625,3.22893126 C33.6994688,3.22893126 35.03125,4.59331733 35.03125,6.27036252 L35.03125,22.3899482 C35.03125,23.2298395 35.6958047,23.9106638 36.515625,23.9106638 Z" id="Path"></path>
        </g>
    </g>
</svg>