<?xml version="1.0" encoding="UTF-8"?>
<svg width="37px" height="36px" viewBox="0 0 37 36" version="1.1" xmlns="http://www.w3.org/2000/svg" xmlns:xlink="http://www.w3.org/1999/xlink">
    <!-- Generator: Sketch 63.1 (92452) - https://sketch.com -->
    <title>iconfinder_ticket_216459</title>
    <desc>Created with Sketch.</desc>
    <g id="Page-2" stroke="none" stroke-width="1" fill="none" fill-rule="evenodd">
        <g id="DEMO-[基本設定E-01]-" transform="translate(-111.000000, -712.000000)" fill="#7CCFEC" fill-rule="nonzero">
            <g id="ＩＣＯＮ" transform="translate(93.000000, 187.000000)">
                <g id="iconfinder_ticket_216459" transform="translate(18.000000, 525.000000)">
                    <path d="M35.1938109,11.0133369 L25.5872163,1.50844635 C23.5670376,-0.490344939 20.0156064,-0.504520764 17.9793092,1.47655075 L1.595803,17.4278976 C0.573177065,18.4237493 0.00724047074,19.7545048 3.80826618e-05,21.1756312 C-0.00529609939,22.5985297 0.549894863,23.9328292 1.56356611,24.9339968 L11.1719516,34.4406593 C12.1874138,35.4453709 13.5449453,36 14.9920237,36 C16.4229836,36 17.7697694,35.4560027 18.7798588,34.4725549 L35.161574,18.5194361 C36.1842,17.5235844 36.7519275,16.1928288 36.757339,14.7717024 C36.7626731,13.350576 36.2074822,12.0162765 35.1938109,11.0133369 Z M32.6488872,15.9943673 L16.2689629,31.9474861 C15.5866153,32.6084339 14.3777317,32.603118 13.7043388,31.9368542 L11.4208921,29.6775822 C12.6924585,28.2865793 12.6620125,26.1442578 11.3098539,24.8010984 C9.95232246,23.459711 7.78528677,23.4313594 6.38119091,24.6894638 L4.09774421,22.4319637 C3.76462963,22.1006038 3.5819539,21.6611532 3.58373179,21.193351 C3.58553577,20.7255488 3.77179339,20.2843263 4.10848984,19.9582823 L20.4919961,4.00693547 C20.8304835,3.67734754 21.2818,3.49660578 21.7689353,3.49660578 C22.2578615,3.49660578 22.7163418,3.6808915 23.0566201,4.01756734 L25.3400668,6.27683941 C24.0667095,7.66784222 24.0971554,9.81016374 25.451105,11.1515512 C26.8086365,12.4929386 28.9738812,12.5212902 30.379768,11.2631858 L32.6614238,13.5206859 C32.9963293,13.8520458 33.1772141,14.2914963 33.1754363,14.7592986 C33.1736322,15.2271008 32.9873746,15.6665513 32.6488872,15.9943673 Z" id="Shape"></path>
                    <path d="M17.4854142,27 L9.09836066,18.6898364 L19.2719629,9 L27.6590164,17.3101636 L17.4854142,27 Z M11.6683253,18.7130392 L17.5088266,24.4994546 L25.0836489,17.2869608 L19.2467495,11.5005454 L11.6683253,18.7130392 Z" id="Shape"></path>
                </g>
            </g>
        </g>
    </g>
</svg>