<?xml version="1.0" encoding="UTF-8"?>
<svg width="38px" height="36px" viewBox="0 0 38 36" version="1.1" xmlns="http://www.w3.org/2000/svg" xmlns:xlink="http://www.w3.org/1999/xlink">
    <!-- Generator: Sketch 63.1 (92452) - https://sketch.com -->
    <title>i-searchorder</title>
    <desc>Created with Sketch.</desc>
    <g id="i-searchorder" stroke="none" stroke-width="1" fill="none" fill-rule="evenodd">
        <g id="Group-19" transform="translate(1.000000, 1.000000)">
            <path d="M31.3136,33.9416 L10.4886,33.9416 C8.0306,33.9416 6.0196,32.0168128 6.0196,29.665358 L6.0196,9.21688535 C6.0196,6.86543057 8.0306,4.9416 10.4886,4.9416 L31.3136,4.9416 C33.7716,4.9416 35.7836,6.86543057 35.7836,9.21688535 L35.7836,29.665358 C35.7836,32.0168128 33.7716,33.9416 31.3136,33.9416 Z" id="Stroke-7" stroke="#7ED1E8" stroke-width="2.5"></path>
            <path d="M17.1529552,15.1807291 C17.1529552,14.8769468 17.4256903,14.5517714 18.1929634,14.5517714 C18.9980251,14.5517714 19.5048854,14.7905186 19.7217592,14.8914941 C19.8285531,14.9419819 19.9567058,14.9513948 20.0725361,14.9171658 C20.1891879,14.8829368 20.2803734,14.8084888 20.324734,14.7135033 L20.6689389,13.9655999 C20.7420517,13.8072908 20.6664744,13.6301557 20.4882108,13.5445833 C20.0150317,13.3161047 19.495849,13.178333 18.9043751,13.1235667 L18.9043751,12.3465685 C18.9043751,12.1557419 18.7146106,12 18.4821285,12 L17.6277773,12 C17.3952952,12 17.2063521,12.1557419 17.2063521,12.3465685 L17.2063521,13.2117063 C15.9207179,13.4915283 15.1238711,14.2950539 15.1238711,15.3167893 C15.1238711,15.8858463 15.3662111,16.3539278 15.8640349,16.7467055 C16.2608153,17.0607565 16.8325735,17.3311655 17.6622799,17.5990074 C18.8008672,17.9780934 18.9569506,18.3169605 18.9569506,18.6267328 C18.9569506,19.0836899 18.4673416,19.3908951 17.7378571,19.3908951 C17.12256,19.3908951 16.4834396,19.2351532 15.9856157,18.962177 C15.8780003,18.9022762 15.7440972,18.8877289 15.620052,18.9211022 C15.4960067,18.9544754 15.3998922,19.0323464 15.3555317,19.1333219 L15.0244706,19.8932055 C14.9612157,20.037823 15.0236491,20.2012665 15.1764465,20.2911176 C15.6471612,20.5675167 16.3659663,20.7694677 17.1094161,20.8336471 L17.1094161,21.6534315 C17.1094161,21.8442581 17.2991806,22 17.5308413,22 L18.3999793,22 C18.6324614,22 18.8214045,21.8442581 18.8214045,21.6534315 L18.8214045,20.753209 C20.1464703,20.4614068 21,19.5996919 21,18.5471504 C21,17.9635461 20.7905197,17.4843402 20.3584151,17.0812939 C19.9714926,16.7193223 19.4128784,16.4240972 18.6020662,16.1528324 C17.3624355,15.7309601 17.1529552,15.5118946 17.1529552,15.1807291 Z" id="Fill-9" fill="#81D1EC"></path>
            <circle id="Oval" stroke="#80D1E8" stroke-width="2" cx="18.5" cy="16.5" r="7.5"></circle>
            <path d="M25.8349365,19.8839746 L30.1650635,22.3839746 C30.6433561,22.660117 30.8072313,23.2717074 30.5310889,23.75 C30.2549465,24.2282926 29.6433561,24.3921678 29.1650635,24.1160254 L24.8349365,21.6160254 C24.3566439,21.339883 24.1927687,20.7282926 24.4689111,20.25 C24.7450535,19.7717074 25.3566439,19.6078322 25.8349365,19.8839746 Z" id="Rectangle" fill="#80D1E8"></path>
            <polygon id="Fill-18" fill="#7CCFEC" points="9.593 30.6065 32.209 30.6065 32.209 28.5495 9.593 28.5495"></polygon>
            <path d="M4.4798,30.3244 C2.0208,30.3244 0.0098,28.3124 0.0098,25.8544 L0.0098,4.4794 C0.0098,2.0214 2.0208,0.0104 4.4798,0.0104 L25.3038,0.0104 C27.7628,0.0104 29.7738,2.0214 29.7738,4.4794" id="Stroke-3" stroke="#7ED1E8" stroke-width="2.5"></path>
        </g>
    </g>
</svg>