<?xml version="1.0" encoding="UTF-8"?>
<svg width="43px" height="38px" viewBox="0 0 43 38" version="1.1" xmlns="http://www.w3.org/2000/svg" xmlns:xlink="http://www.w3.org/1999/xlink">
    <!-- Generator: Sketch 63.1 (92452) - https://sketch.com -->
    <title>icon_sell</title>
    <desc>Created with Sketch.</desc>
    <g id="Page-1" stroke="none" stroke-width="1" fill="none" fill-rule="evenodd">
        <g id="icon_sell" transform="translate(1.000000, 2.000000)">
            <path d="M32.6022594,16.1527323 C31.3620327,15.7307744 31.1528042,15.5118466 31.1528042,15.1804862 C31.1528042,14.8767071 31.4261061,14.5520504 32.1931222,14.5520504 C32.9981162,14.5520504 33.505111,14.7903235 33.7215623,14.8918386 C33.8287395,14.942213 33.9566531,14.9514069 34.0729172,14.9171216 C34.1891811,14.8828363 34.2809807,14.8087111 34.3247836,14.7137083 L34.6693816,13.9655615 C34.7425417,13.8069682 34.6663527,13.6296041 34.4883453,13.5439867 C34.0151347,13.3160566 33.4964901,13.1783409 32.9042196,13.1237526 L32.9042196,12.346492 C32.9042196,12.1555288 32.7150285,12 32.4827336,12 L31.6276458,12 C31.3951179,12 31.2061599,12.1555288 31.2061599,12.346492 L31.2061599,13.211477 C29.9204994,13.4915053 29.1238931,14.2950066 29.1238931,15.3166696 C29.1238931,15.8861116 29.3657408,16.353847 29.8636488,16.7468827 C30.2609035,17.0606217 30.8326706,17.3314563 31.6623619,17.5988431 C32.8005373,17.9780881 32.9573422,18.31711 32.9573422,18.6268268 C32.9573422,19.0840277 32.4673559,19.3912543 31.737852,19.3912543 C31.122515,19.3912543 30.4838786,19.2347679 29.9859706,18.962018 C29.8773955,18.9024498 29.7438899,18.8877013 29.6199371,18.9212204 C29.4959844,18.9549311 29.3995249,19.0323124 29.355489,19.1334444 L29.0244047,19.892892 C28.9612633,20.0380777 29.0237057,20.2020341 29.1763167,20.2916738 C29.6467315,20.5678715 30.3659837,20.7691777 31.1097004,20.8337259 L31.1097004,21.653508 C31.1097004,21.8446628 31.2986584,22 31.5311864,22 L32.3997878,22 C32.6323157,22 32.8212738,21.8446628 32.8212738,21.653508 L32.8212738,20.7538546 C34.1465432,20.461951 35,19.5996476 35,18.5473386 C35,17.9635311 34.7903055,17.4841119 34.3588007,17.0813078 C33.9710988,16.7194928 33.4128454,16.424333 32.6022594,16.1527323 Z" id="Path" fill="#81D1EC" fill-rule="nonzero"></path>
            <path d="M33.173913,8 L30.826087,8 C26.4162704,8.57963499 23,12.3773495 23,16.9616238 C23,21.9453181 27.037466,26 32,26 C36.962534,26 41,21.9453181 41,16.9616238 C41,12.3773495 37.5837296,8.57963499 33.173913,8 Z M32,23.8823529 C28.2052173,23.8823529 25.1176471,20.7947827 25.1176471,17 C25.1176471,13.2052173 28.2052173,10.1176471 32,10.1176471 C35.7947827,10.1176471 38.8823529,13.2052173 38.8823529,17 C38.8823529,20.7947827 35.7947827,23.8823529 32,23.8823529 Z" id="Shape" stroke="#7BCDEA" stroke-width="0.5" fill="#7CCFEC" fill-rule="nonzero"></path>
            <path d="M9.60869565,26 C11.7391304,26 13.8695652,26 16,26 C16.5522847,26 17,25.5522847 17,25 L17,10 C17,9.44771525 16.5522847,9 16,9 L1,9 C0.44771525,9 -6.76353751e-17,9.44771525 0,10 L0,25 C6.76353751e-17,25.5522847 0.44771525,26 1,26 L7.39130435,26 L7.39130435,26 C8.13043478,26 8.86956522,26 9.60869565,26 Z M6.4375,11.125 L10.625,11.125 L10.625,15.375 L8.53125,14.2576176 L6.4375,15.375 L6.4375,11.125 Z M2.125,11.125 L4.375,11.125 L4.375,18.5702148 L8.5,16.5077148 L12.625,18.5702148 L12.625,11.125 L14.875,11.125 L14.875,23.875 L2.125,23.875 L2.125,11.125 Z" id="Shape" stroke="#79CAE6" stroke-width="0.5" fill="#7CCFEC" fill-rule="nonzero"></path>
            <g id="Group" transform="translate(8.000000, 26.000000)" stroke="#79CAE6" stroke-linecap="round" stroke-linejoin="round">
                <polyline id="Line" stroke-width="3" points="0 -5.05151476e-14 0 8 24 8 24 3.55398269"></polyline>
                <polyline id="Line-2" stroke-width="2.5" points="27.6666667 4.05 24.0951767 1.95 20.6666667 4.05"></polyline>
            </g>
            <g id="Group" transform="translate(18.000000, 4.000000) scale(-1, -1) translate(-18.000000, -4.000000) translate(4.000000, 0.000000)" stroke="#79CAE6" stroke-linecap="round" stroke-linejoin="round">
                <polyline id="Line" stroke-width="3" points="0 -5.05151476e-14 0 8 24 8 24 3.55398269"></polyline>
                <polyline id="Line-2" stroke-width="2.5" points="27.6666667 3.05 24.0951767 0.95 20.6666667 3.05"></polyline>
            </g>
        </g>
    </g>
</svg>