<?xml version="1.0" encoding="UTF-8"?>
<svg width="41px" height="31px" viewBox="0 0 41 31" version="1.1" xmlns="http://www.w3.org/2000/svg" xmlns:xlink="http://www.w3.org/1999/xlink">
    <!-- Generator: Sketch 63.1 (92452) - https://sketch.com -->
    <title>icon_ticket</title>
    <desc>Created with Sketch.</desc>
    <g id="Page-1" stroke="none" stroke-width="1" fill="none" fill-rule="evenodd">
        <g id="icon_ticket" transform="translate(0.000000, 1.000000)">
            <path d="M39.6237183,20.3356377 C40.1254273,19.4626305 40.1254273,18.334158 39.6237183,17.4611508 L37.9473877,14.5457624 C37.9312134,14.517601 37.9312134,14.481058 37.9473877,14.4528965 L39.6234131,11.5375083 C40.1254273,10.6645009 40.1254273,9.53602849 39.6234131,8.66302124 L37.9473877,5.74763297 C37.9312134,5.71947145 37.9312134,5.68292854 37.9473877,5.65510225 L39.2840577,3.32976498 C39.6685791,2.66126399 39.6914673,1.81541256 39.3441773,1.12310845 C38.996582,0.430133778 38.3334351,0 37.6135254,0 L2.38616945,0 C1.66656492,0 1.00341797,0.430133778 0.655822734,1.12277313 C0.3082275,1.81541256 0.308532734,27.1842522 0.655822734,27.8768917 C1.00341797,28.5698662 1.66656492,29 2.38647461,29 L37.6138305,29 C38.3334351,29 38.996582,28.5698662 39.3441773,27.8772268 C39.6917725,27.1845876 39.6685791,26.3390712 39.2843628,25.670235 L37.9473877,23.3442272 C37.9312134,23.3160658 37.9312134,23.2798581 37.9473877,23.2513612 M37.6187134,18.7970435 L35.942688,21.6162541 C35.4406738,22.4602668 35.4406738,23.5512606 35.942688,24.3952735 L36.8969727,26 L28.4033203,26 L26.0324097,26 L3.1033325,26 L3.1033325,3 L26.0324097,3 L28.4033203,3 L36.8966675,3 L35.942688,4.60375425 C35.4406738,5.44809127 35.4406738,6.53876077 35.942688,7.38309777 L37.6187134,10.2016601 C37.6348877,10.2288863 37.6348877,10.2638914 37.6187134,10.2911177 L35.942688,13.110004 C35.4406738,13.954017 35.4406738,15.0450107 35.942688,15.8890236 L37.6187134,18.7075859 C37.6348877,18.7348121 37.6348877,18.7698173 37.6187134,18.7970435 Z" id="Shape" stroke="#81D1EC" stroke-width="0.5" fill="#7CCFEC" fill-rule="nonzero"></path>
            <rect id="Rectangle" fill="#7FCDE8" x="27" y="22" width="2.5" height="4" rx="1.25"></rect>
            <rect id="Rectangle" stroke="#7CCFEC" stroke-width="0.3" fill="#7FCDE8" x="27" y="21" width="2.5" height="6" rx="1.25"></rect>
            <rect id="Rectangle" stroke="#7CCFEC" stroke-width="0.3" fill="#7FCDE8" x="27" y="2" width="2.5" height="14" rx="1.25"></rect>
            <path d="M16.0037657,12.9030783 C13.9367212,12.2279456 13.5880071,11.8776612 13.5880071,11.3474845 C13.5880071,10.8614379 14.0435102,10.3419873 15.3218703,10.3419873 C16.6635269,10.3419873 17.5085183,10.7232242 17.8692705,10.8856484 C18.0478991,10.9662475 18.2610886,10.9809576 18.454862,10.9261011 C18.6486352,10.8712447 18.8016345,10.7526444 18.8746393,10.60064 L19.4489694,9.40360503 C19.5709029,9.14985569 19.4439212,8.86607324 19.1472422,8.72908534 C18.3585578,8.36439722 17.4941502,8.14405205 16.5070326,8.05671081 L16.5070326,6.81309386 C16.5070326,6.50755268 16.1917142,6.25870663 15.804556,6.25870663 L14.3794097,6.25870663 C13.9918632,6.25870663 13.6769331,6.50755268 13.6769331,6.81309386 L13.6769331,8.1970698 C11.5341656,8.6451151 10.2064885,9.93071722 10.2064885,11.565378 C10.2064885,12.4764852 10.6095679,13.2248619 11.4394147,13.853719 C12.1015058,14.3557014 13.054451,14.7890367 14.4372699,15.2168556 C16.3342288,15.8236475 16.5955703,16.3660827 16.5955703,16.8616295 C16.5955703,17.5931509 15.7789266,18.0847136 14.5630867,18.0847136 C13.537525,18.0847136 12.4731311,17.8343353 11.6432844,17.3979355 C11.4623258,17.3026262 11.2398165,17.2790287 11.0332286,17.3326593 C10.8266407,17.3865964 10.6658748,17.5104065 10.5924817,17.6722177 L10.0406744,18.8873338 C9.93543889,19.1196309 10.0395095,19.3819612 10.2938612,19.5253847 C11.0778859,19.967301 12.2766396,20.289391 13.5161673,20.3926681 L13.5161673,21.7043194 C13.5161673,22.0101671 13.8310973,22.2587066 14.218644,22.2587066 L15.6663129,22.2587066 C16.0538595,22.2587066 16.3687896,22.0101671 16.3687896,21.7043194 L16.3687896,20.2648741 C18.577572,19.7978282 20,18.4181428 20,16.7344483 C20,15.8003565 19.6505091,15.0332857 18.9313346,14.3887991 C18.2851647,13.809895 17.3547423,13.3376394 16.0037657,12.9030783 Z" id="Path" stroke="#81D1EC" stroke-width="0.3" fill="#81D1EC" fill-rule="nonzero"></path>
        </g>
    </g>
</svg>