<?xml version="1.0" encoding="UTF-8"?>
<svg width="48px" height="48px" viewBox="0 0 48 48" version="1.1" xmlns="http://www.w3.org/2000/svg" xmlns:xlink="http://www.w3.org/1999/xlink">
    <!-- Generator: Sketch 63.1 (92452) - https://sketch.com -->
    <title>Artboard</title>
    <desc>Created with Sketch.</desc>
    <g id="Artboard" stroke="none" stroke-width="1" fill="none" fill-rule="evenodd">
        <g id="chair" transform="translate(23.061224, 23.000000) rotate(-180.000000) translate(-23.061224, -23.000000) translate(0.061224, -0.000000)" fill-rule="nonzero">
            <path d="M40.5525497,17.5630319 L40.5525497,9.08458589 C40.5525497,4.09290154 37.0063546,0.0318035868 32.6475612,0.0318035868 L12.4136633,0.0318035868 C8.0548699,0.0318035868 4.50867474,4.09290154 4.50867474,9.08458589 L4.50867474,16.8185513 C1.9276875,17.5140973 0,19.5511379 0,22.7160185 L0,31.9013386 C0,38.7056153 4.49177679,44.3301549 10.2577653,45.0930281 L34.8035472,45.0930281 C40.5695357,44.3301549 45.0612245,38.7056153 45.0612245,31.9013386 L45.0612245,22.7159177 C45.0612245,19.5511379 43.133537,18.258578 40.5525497,17.5630319 Z" id="Path" fill="#FFFFFF"></path>
            <path d="M40.5525497,17.3312402 L40.5525497,9.08458589 C40.5525497,4.09290154 37.0063546,0.0318035868 32.6475612,0.0318035868 L12.4136633,0.0318035868 C8.0548699,0.0318035868 4.50867474,4.09290154 4.50867474,9.08458589 L4.50867474,17.3312402 C1.9276875,18.0267862 5.00713024e-13,19.5511379 5.00713024e-13,22.7160185 L5.00713024e-13,31.9013386 C5.00713024e-13,38.7056153 4.49177679,44.3301549 10.2577653,45.0930281 L34.8035472,45.0930281 C40.5695357,44.3301549 45.0612245,38.7056153 45.0612245,31.9013386 L45.0612245,22.7159177 C45.0612245,19.5511379 43.133537,18.0267862 40.5525497,17.3312402 Z" id="Combined-Shape" stroke="#454545" stroke-width="2" fill="#D2D2D2"></path>
            <path d="M34.2128989,44.8722535 L10.9010267,44.8722535 C5.65855064,44.8722535 0.432587755,39.2308376 0.432587755,32.9618267 L0.432587755,22.2543217 C0.432587755,20.0264969 2.63094508,18.1978022 4.49393578,18.1978022 C6.35702031,18.1978022 8.15082613,20.0266091 8.15082613,22.2543217 L8.15082613,32.479584 C8.15082613,34.2929454 9.38443822,35.7681388 10.9009329,35.7681388 L34.212805,35.7681388 C35.7292059,35.7681388 36.962818,34.2929454 36.962818,32.479584 L36.962818,22.2543217 C36.962818,20.0264969 38.79415,18.1978022 40.6571407,18.1978022 C42.5202252,18.1978022 44.6810564,20.0266091 44.6810564,22.2543217 L44.6810564,32.479584 C44.6810564,38.748595 39.455375,44.8722535 34.2128989,44.8722535 Z" id="Path" stroke="#454545" stroke-width="2" fill="#D2D2D2"></path>
        </g>
        <path d="M24.6923077,33.5054945 L24.6923077,33.1208791 C24.6923077,32.4615385 24.8296703,31.8571429 25.1043956,31.3076923 C25.3516484,30.8131868 25.7087912,30.3461538 26.2032967,29.9615385 C27.521978,28.8076923 28.3186813,28.0659341 28.5659341,27.7912088 C29.2252747,26.9120879 29.5824176,25.7857143 29.5824176,24.4120879 C29.5824176,22.7362637 29.032967,21.4175824 27.9340659,20.456044 C26.8351648,19.467033 25.3791209,19 23.5934066,19 C21.5604396,19 19.967033,19.5769231 18.7857143,20.7307692 C17.5769231,21.8846154 17,23.478022 17,25.510989 L20.1318681,25.510989 C20.1318681,24.3296703 20.3516484,23.4230769 20.8186813,22.7912088 C21.3681319,22.0494505 22.2197802,21.6923077 23.4010989,21.6923077 C24.3351648,21.6923077 25.0769231,21.9395604 25.5989011,22.4615385 C26.0934066,22.9835165 26.3681319,23.6978022 26.3681319,24.6043956 C26.3681319,25.2912088 26.1208791,25.9505495 25.6263736,26.5549451 C25.4065934,26.8021978 24.8571429,27.3241758 23.978022,28.1208791 C23.0714286,28.9175824 22.4395604,29.6868132 22.0824176,30.4285714 C21.6978022,31.1703297 21.532967,32.0769231 21.532967,33.1208791 L21.532967,33.5054945 L24.6923077,33.5054945 Z M23.0989011,39 C23.7032967,39 24.1978022,38.8076923 24.6373626,38.4230769 C25.021978,38.0384615 25.2417582,37.5164835 25.2417582,36.9120879 C25.2417582,36.3076923 25.021978,35.8131868 24.6373626,35.4285714 C24.2252747,35.043956 23.7032967,34.8516484 23.0989011,34.8516484 C22.4945055,34.8516484 22,35.043956 21.6153846,35.4285714 C21.1758242,35.8131868 20.9835165,36.3076923 20.9835165,36.9120879 C20.9835165,37.5164835 21.1758242,38.010989 21.6153846,38.3956044 C22,38.7802198 22.4945055,39 23.0989011,39 Z" id="？" fill="#BA0050" fill-rule="nonzero"></path>
    </g>
</svg>