<?xml version="1.0" encoding="UTF-8"?>
<svg width="48px" height="48px" viewBox="0 0 48 48" version="1.1" xmlns="http://www.w3.org/2000/svg" xmlns:xlink="http://www.w3.org/1999/xlink">
    <!-- Generator: Sketch 63.1 (92452) - https://sketch.com -->
    <title>Artboard</title>
    <desc>Created with Sketch.</desc>
    <g id="Artboard" stroke="none" stroke-width="1" fill="none" fill-rule="evenodd">
        <g id="chair" transform="translate(23.061224, 23.000000) rotate(-180.000000) translate(-23.061224, -23.000000) translate(0.061224, 0.000000)" fill-rule="nonzero">
            <path d="M40.5525497,17.5630319 L40.5525497,9.08458589 C40.5525497,4.09290154 37.0063546,0.0318035868 32.6475612,0.0318035868 L12.4136633,0.0318035868 C8.0548699,0.0318035868 4.50867474,4.09290154 4.50867474,9.08458589 L4.50867474,16.8185513 C1.9276875,17.5140973 0,19.5511379 0,22.7160185 L0,31.9013386 C0,38.7056153 4.49177679,44.3301549 10.2577653,45.0930281 L34.8035472,45.0930281 C40.5695357,44.3301549 45.0612245,38.7056153 45.0612245,31.9013386 L45.0612245,22.7159177 C45.0612245,19.5511379 43.133537,18.258578 40.5525497,17.5630319 Z" id="Path" fill="#FFFFFF"></path>
            <path d="M40.5525497,17.3312402 L40.5525497,9.08458589 C40.5525497,4.09290154 37.0063546,0.0318035868 32.6475612,0.0318035868 L12.4136633,0.0318035868 C8.0548699,0.0318035868 4.50867474,4.09290154 4.50867474,9.08458589 L4.50867474,17.3312402 C1.9276875,18.0267862 5.00713024e-13,19.5511379 5.00713024e-13,22.7160185 L5.00713024e-13,31.9013386 C5.00713024e-13,38.7056153 4.49177679,44.3301549 10.2577653,45.0930281 L34.8035472,45.0930281 C40.5695357,44.3301549 45.0612245,38.7056153 45.0612245,31.9013386 L45.0612245,22.7159177 C45.0612245,19.5511379 43.133537,18.0267862 40.5525497,17.3312402 Z" id="Combined-Shape" stroke="#454545" stroke-width="2" fill="#D2D2D2"></path>
            <path d="M34.2128989,44.8722535 L10.9010267,44.8722535 C5.65855064,44.8722535 0.432587755,39.2308376 0.432587755,32.9618267 L0.432587755,22.2543217 C0.432587755,20.0264969 2.63094508,18.1978022 4.49393578,18.1978022 C6.35702031,18.1978022 8.15082613,20.0266091 8.15082613,22.2543217 L8.15082613,32.479584 C8.15082613,34.2929454 9.38443822,35.7681388 10.9009329,35.7681388 L34.212805,35.7681388 C35.7292059,35.7681388 36.962818,34.2929454 36.962818,32.479584 L36.962818,22.2543217 C36.962818,20.0264969 38.79415,18.1978022 40.6571407,18.1978022 C42.5202252,18.1978022 44.6810564,20.0266091 44.6810564,22.2543217 L44.6810564,32.479584 C44.6810564,38.748595 39.455375,44.8722535 34.2128989,44.8722535 Z" id="Path" stroke="#454545" stroke-width="2" fill="#D2D2D2"></path>
            <path d="M23.0706092,26 C28.0445404,26 32.0612245,21.9833159 32.0612245,16.9906152 C32.0612245,12.0166841 28.0445404,8 23.0706092,8 C18.0966781,8 14.0612245,12.0354536 14.0612245,16.9906152 C14.0612245,21.9645464 18.0966781,26 23.0706092,26 Z M23.0706092,25.3055266 C18.472069,25.3055266 14.7556979,21.5891554 14.7556979,16.9906153 C14.7556979,12.4108447 18.472069,8.69447339 23.0706092,8.69447339 C27.6503798,8.69447339 31.366751,12.4108447 31.366751,16.9906153 C31.366751,21.5891554 27.6503798,25.3055266 23.0706092,25.3055266 Z" id="◯" stroke="#BA0050" fill="#BA0050"></path>
        </g>
    </g>
</svg>