<?xml version="1.0" encoding="UTF-8"?>
<svg width="48px" height="48px" viewBox="0 0 48 48" version="1.1" xmlns="http://www.w3.org/2000/svg" xmlns:xlink="http://www.w3.org/1999/xlink">
    <!-- Generator: Sketch 63.1 (92452) - https://sketch.com -->
    <title>Artboard</title>
    <desc>Created with Sketch.</desc>
    <g id="Artboard" stroke="none" stroke-width="1" fill="none" fill-rule="evenodd">
        <g id="chair" transform="translate(23.061224, 23.000000) rotate(-180.000000) translate(-23.061224, -23.000000) translate(0.061224, -0.000000)" fill-rule="nonzero">
            <path d="M40.5525497,17.5630319 L40.5525497,9.08458589 C40.5525497,4.09290154 37.0063546,0.0318035868 32.6475612,0.0318035868 L12.4136633,0.0318035868 C8.0548699,0.0318035868 4.50867474,4.09290154 4.50867474,9.08458589 L4.50867474,16.8185513 C1.9276875,17.5140973 0,19.5511379 0,22.7160185 L0,31.9013386 C0,38.7056153 4.49177679,44.3301549 10.2577653,45.0930281 L34.8035472,45.0930281 C40.5695357,44.3301549 45.0612245,38.7056153 45.0612245,31.9013386 L45.0612245,22.7159177 C45.0612245,19.5511379 43.133537,18.258578 40.5525497,17.5630319 Z" id="Path" fill="#FFFFFF"></path>
            <path d="M40.5525497,17.3312402 L40.5525497,9.08458589 C40.5525497,4.09290154 37.0063546,0.0318035868 32.6475612,0.0318035868 L12.4136633,0.0318035868 C8.0548699,0.0318035868 4.50867474,4.09290154 4.50867474,9.08458589 L4.50867474,17.3312402 C1.9276875,18.0267862 5.00713024e-13,19.5511379 5.00713024e-13,22.7160185 L5.00713024e-13,31.9013386 C5.00713024e-13,38.7056153 4.49177679,44.3301549 10.2577653,45.0930281 L34.8035472,45.0930281 C40.5695357,44.3301549 45.0612245,38.7056153 45.0612245,31.9013386 L45.0612245,22.7159177 C45.0612245,19.5511379 43.133537,18.0267862 40.5525497,17.3312402 Z" id="Combined-Shape" stroke="#454545" stroke-width="2" fill="#D2D2D2"></path>
            <path d="M34.2128989,44.8722535 L10.9010267,44.8722535 C5.65855064,44.8722535 0.432587755,39.2308376 0.432587755,32.9618267 L0.432587755,22.2543217 C0.432587755,20.0264969 2.63094508,18.1978022 4.49393578,18.1978022 C6.35702031,18.1978022 8.15082613,20.0266091 8.15082613,22.2543217 L8.15082613,32.479584 C8.15082613,34.2929454 9.38443822,35.7681388 10.9009329,35.7681388 L34.212805,35.7681388 C35.7292059,35.7681388 36.962818,34.2929454 36.962818,32.479584 L36.962818,22.2543217 C36.962818,20.0264969 38.79415,18.1978022 40.6571407,18.1978022 C42.5202252,18.1978022 44.6810564,20.0266091 44.6810564,22.2543217 L44.6810564,32.479584 C44.6810564,38.748595 39.455375,44.8722535 34.2128989,44.8722535 Z" id="Path" stroke="#454545" stroke-width="2" fill="#D2D2D2"></path>
        </g>
        <path d="M24,37 C28.9704546,37 33,32.9704546 33,28 C33,25.7704546 32.1818182,23.6227272 30.6886364,21.9863636 C28.9295454,20.0431818 26.5977272,19 24,19 C21.8113636,19 19.5818182,19.8590909 17.9863636,21.3113636 C16.0431818,23.0909091 15,25.4227272 15,28 C15,32.9704546 19.0295454,37 24,37 Z M23.9795454,36.2636364 C19.4181818,36.2636364 15.7159091,32.5613636 15.7159091,28 C15.7159091,25.9545454 16.4727272,23.990909 17.8431818,22.4772728 C19.4590909,20.6977272 21.5863636,19.7363636 23.9795454,19.7363636 C25.9840909,19.7363636 28.0295454,20.5136364 29.4818182,21.8636364 C31.2818182,23.5 32.2227272,25.6068182 32.2227272,28 C32.2227272,32.5613636 28.5204546,36.2636364 23.9795454,36.2636364 Z M24,34.0954546 C27.3545454,34.0954546 30.0545454,31.375 30.0545454,28.040909 C30.0545454,24.6863636 27.3545454,21.9863636 24,21.9863636 C20.665909,21.9863636 17.9454546,24.7068182 17.9454546,28.040909 C17.9454546,31.375 20.665909,34.0954546 24,34.0954546 Z" id="◉" fill="#BA0050" fill-rule="nonzero"></path>
    </g>
</svg>