<svg xmlns="http://www.w3.org/2000/svg" viewBox="1627 168 100 28">
  <defs>
    <style>
      .cls-1 {
        fill: #81bce6;
      }

      .cls-2 {
        fill: #65b4ee;
      }

      .cls-3, .cls-4 {
        fill: #fff;
      }

      .cls-4 {
        font-size: 12px;
        font-family: HiraginoSans-W6, Hiragino Sans;
      }
    </style>
  </defs>
  <g id="share_twitter" transform="translate(1687 168)">
    <rect id="長方形_368" data-name="長方形 368" class="cls-1" width="100" height="28" rx="4" transform="translate(-60 0)"/>
    <path id="パス_228" data-name="パス 228" class="cls-2" d="M22.955,0H5.1A5.1,5.1,0,0,0,0,5.064V22.9A5.1,5.1,0,0,0,5.064,28H22.9A5.1,5.1,0,0,0,28,22.936V5.1A5.07,5.07,0,0,0,22.955,0" transform="translate(-60 0)"/>
    <path id="パス_230" data-name="パス 230" class="cls-3" d="M34.348,22.735a7.487,7.487,0,0,1-2.147.588,3.936,3.936,0,0,0,1.647-2.059,7.391,7.391,0,0,1-2.353.912A3.665,3.665,0,0,0,28.789,21a3.741,3.741,0,0,0-3.736,3.736,3.993,3.993,0,0,0,.088.853,10.816,10.816,0,0,1-7.706-3.941,3.744,3.744,0,0,0,1.147,4.971,3.579,3.579,0,0,1-1.677-.471v.059a3.724,3.724,0,0,0,3,3.647,3.654,3.654,0,0,1-.971.118,5.712,5.712,0,0,1-.706-.059A3.739,3.739,0,0,0,21.7,32.5a7.439,7.439,0,0,1-4.618,1.588c-.294,0-.588-.029-.882-.059a10.58,10.58,0,0,0,16.3-8.912v-.471A8.171,8.171,0,0,0,34.348,22.735Z" transform="translate(-71.2 -14)"/>
    <text id="ツイート" class="cls-4" transform="translate(-20 19)"><tspan x="0" y="0">ツイート</tspan></text>
  </g>
</svg>
